<svg xmlns="http://www.w3.org/2000/svg" xmlns:xlink="http://www.w3.org/1999/xlink" version="1.1" width="256" height="256" viewBox="0 0 256 256" xml:space="preserve">
<g style="stroke: none; stroke-width: 0; stroke-dasharray: none; stroke-linecap: butt; stroke-linejoin: miter; stroke-miterlimit: 10; fill: none; fill-rule: nonzero; opacity: 1;" transform="translate(1.4065934065934016 1.4065934065934016) scale(2.81 2.81)">
	<path d="M 45 0 C 25.463 0 9.625 15.838 9.625 35.375 c 0 8.722 3.171 16.693 8.404 22.861 L 45 90 l 26.97 -31.765 c 5.233 -6.167 8.404 -14.139 8.404 -22.861 C 80.375 15.838 64.537 0 45 0 z" style="stroke: none; stroke-width: 1; stroke-dasharray: none; stroke-linecap: butt; stroke-linejoin: miter; stroke-miterlimit: 10; fill: rgb(0,0,153); fill-rule: nonzero; opacity: 1;" transform=" matrix(1 0 0 1 0 0) " stroke-linecap="round"/>
	<circle cx="45" cy="34.16" r="28" style="stroke: none; stroke-width: 1; stroke-dasharray: none; stroke-linecap: butt; stroke-linejoin: miter; stroke-miterlimit: 10; fill: rgb(243,244,245); fill-rule: nonzero; opacity: 1;" transform="  matrix(1 0 0 1 0 0) "/>
	<path d="M 58.157 13.034 L 58.157 13.034 C 54.311 10.621 49.766 9.22 44.89 9.22 s -9.421 1.401 -13.267 3.814 C 24.578 17.456 19.89 25.288 19.89 34.22 s 4.688 16.764 11.733 21.186 c 3.846 2.413 8.391 3.814 13.267 3.814 s 9.421 -1.401 13.267 -3.814 C 65.203 50.984 69.89 43.152 69.89 34.22 S 65.203 17.456 58.157 13.034 z" style="stroke: none; stroke-width: 1; stroke-dasharray: none; stroke-linecap: butt; stroke-linejoin: miter; stroke-miterlimit: 10; fill: rgb(0,0,153); fill-rule: nonzero; opacity: 1;" transform=" matrix(1 0 0 1 0 0) " stroke-linecap="round"/>
	<polygon points="64.33,33.52 62.21,33.5 61.59,31.52 60.92,33.54 58.85,33.51 60.56,34.77 59.88,36.74 61.62,35.5 63.28,36.74 62.64,34.72 " style="stroke: none; stroke-width: 1; stroke-dasharray: none; stroke-linecap: butt; stroke-linejoin: miter; stroke-miterlimit: 10; fill: rgb(255,204,0); fill-rule: nonzero; opacity: 1;" transform="  matrix(1 0 0 1 0 0) "/>
	<polygon points="57.64,28.34 59.37,27.11 61.03,28.35 60.39,26.32 62.09,25.13 59.96,25.11 59.34,23.13 58.67,25.15 56.6,25.11 58.31,26.38 " style="stroke: none; stroke-width: 1; stroke-dasharray: none; stroke-linecap: butt; stroke-linejoin: miter; stroke-miterlimit: 10; fill: rgb(255,204,0); fill-rule: nonzero; opacity: 1;" transform="  matrix(1 0 0 1 0 0) "/>
	<polygon points="53.38,17.07 52.7,19.09 50.63,19.06 52.34,20.32 51.66,22.29 53.4,21.05 55.06,22.29 54.42,20.27 56.11,19.07 53.99,19.05 " style="stroke: none; stroke-width: 1; stroke-dasharray: none; stroke-linecap: butt; stroke-linejoin: miter; stroke-miterlimit: 10; fill: rgb(255,204,0); fill-rule: nonzero; opacity: 1;" transform="  matrix(1 0 0 1 0 0) "/>
	<polygon points="44.98,14.73 44.31,16.75 42.23,16.72 43.94,17.99 43.27,19.95 45,18.71 46.66,19.96 46.02,17.93 47.72,16.73 45.59,16.72 " style="stroke: none; stroke-width: 1; stroke-dasharray: none; stroke-linecap: butt; stroke-linejoin: miter; stroke-miterlimit: 10; fill: rgb(255,204,0); fill-rule: nonzero; opacity: 1;" transform="  matrix(1 0 0 1 0 0) "/>
	<polygon points="36.67,16.98 36,19 33.93,18.97 35.64,20.24 34.97,22.2 36.7,20.96 38.36,22.21 37.72,20.18 39.41,18.98 37.29,18.97 " style="stroke: none; stroke-width: 1; stroke-dasharray: none; stroke-linecap: butt; stroke-linejoin: miter; stroke-miterlimit: 10; fill: rgb(255,204,0); fill-rule: nonzero; opacity: 1;" transform="  matrix(1 0 0 1 0 0) "/>
	<polygon points="30.44,23.04 29.77,25.06 27.7,25.03 29.41,26.29 28.73,28.26 30.47,27.02 32.13,28.27 31.49,26.24 33.18,25.04 31.06,25.02 " style="stroke: none; stroke-width: 1; stroke-dasharray: none; stroke-linecap: butt; stroke-linejoin: miter; stroke-miterlimit: 10; fill: rgb(255,204,0); fill-rule: nonzero; opacity: 1;" transform="  matrix(1 0 0 1 0 0) "/>
	<polygon points="28.22,35.41 29.88,36.66 29.24,34.63 30.93,33.44 28.81,33.42 28.19,31.43 27.52,33.45 25.45,33.42 27.16,34.69 26.48,36.65 " style="stroke: none; stroke-width: 1; stroke-dasharray: none; stroke-linecap: butt; stroke-linejoin: miter; stroke-miterlimit: 10; fill: rgb(255,204,0); fill-rule: nonzero; opacity: 1;" transform="  matrix(1 0 0 1 0 0) "/>
	<polygon points="31.06,41.98 30.44,40 29.77,42.02 27.7,41.99 29.41,43.25 28.73,45.22 30.47,43.98 32.13,45.23 31.49,43.2 33.18,42 " style="stroke: none; stroke-width: 1; stroke-dasharray: none; stroke-linecap: butt; stroke-linejoin: miter; stroke-miterlimit: 10; fill: rgb(255,204,0); fill-rule: nonzero; opacity: 1;" transform="  matrix(1 0 0 1 0 0) "/>
	<polygon points="37.11,48.21 36.5,46.23 35.83,48.25 33.75,48.22 35.46,49.48 34.79,51.45 36.52,50.21 38.18,51.46 37.54,49.43 39.24,48.23 " style="stroke: none; stroke-width: 1; stroke-dasharray: none; stroke-linecap: butt; stroke-linejoin: miter; stroke-miterlimit: 10; fill: rgb(255,204,0); fill-rule: nonzero; opacity: 1;" transform="  matrix(1 0 0 1 0 0) "/>
	<polygon points="45.51,50.46 44.9,48.48 44.22,50.5 42.15,50.47 43.86,51.73 43.19,53.7 44.92,52.46 46.58,53.71 45.94,51.68 47.63,50.48 " style="stroke: none; stroke-width: 1; stroke-dasharray: none; stroke-linecap: butt; stroke-linejoin: miter; stroke-miterlimit: 10; fill: rgb(255,204,0); fill-rule: nonzero; opacity: 1;" transform="  matrix(1 0 0 1 0 0) "/>
	<polygon points="53.9,48.21 53.29,46.23 52.61,48.25 50.54,48.22 52.25,49.48 51.58,51.45 53.31,50.21 54.97,51.46 54.33,49.43 56.03,48.23 " style="stroke: none; stroke-width: 1; stroke-dasharray: none; stroke-linecap: butt; stroke-linejoin: miter; stroke-miterlimit: 10; fill: rgb(255,204,0); fill-rule: nonzero; opacity: 1;" transform="  matrix(1 0 0 1 0 0) "/>
	<polygon points="60.13,41.98 59.52,40 58.84,42.02 56.77,41.99 58.48,43.25 57.81,45.22 59.54,43.98 61.2,45.23 60.56,43.2 62.26,42 " style="stroke: none; stroke-width: 1; stroke-dasharray: none; stroke-linecap: butt; stroke-linejoin: miter; stroke-miterlimit: 10; fill: rgb(255,204,0); fill-rule: nonzero; opacity: 1;" transform="  matrix(1 0 0 1 0 0) "/>
</g>
</svg>