<?xml version="1.0" encoding="UTF-8" ?>
<!DOCTYPE svg PUBLIC "-//W3C//DTD SVG 1.1//EN" "http://www.w3.org/Graphics/SVG/1.1/DTD/svg11.dtd">
<svg width="1366pt" height="911pt" viewBox="0 0 1366 911" version="1.1" xmlns="http://www.w3.org/2000/svg">
<g id="#d61921d9">
<path fill="#d61921" opacity="0.85" d=" M 0.00 0.00 L 1366.00 0.00 L 1366.00 911.00 L 0.00 911.00 L 0.00 0.00 M 1.22 1.22 C 1.33 44.48 1.24 87.74 1.27 131.00 C 1.27 390.58 1.28 650.15 1.27 909.73 C 10.85 909.64 20.42 909.67 30.00 909.67 C 429.33 909.67 828.67 909.67 1228.00 909.67 C 1273.58 909.71 1319.16 909.58 1364.74 909.74 C 1364.57 816.83 1364.72 723.91 1364.67 631.00 C 1364.71 421.09 1364.59 211.18 1364.73 1.27 C 948.48 1.28 532.24 1.27 116.00 1.27 C 77.74 1.24 39.48 1.34 1.22 1.22 Z" />
</g>
<g id="#ee1c25ff">
<path fill="#ee1c25" opacity="1.00" d=" M 1.22 1.22 C 39.48 1.34 77.74 1.24 116.00 1.27 C 532.24 1.27 948.48 1.28 1364.73 1.27 C 1364.59 211.18 1364.71 421.09 1364.67 631.00 C 1364.72 723.91 1364.57 816.83 1364.74 909.74 C 1319.16 909.58 1273.58 909.71 1228.00 909.67 C 828.67 909.67 429.33 909.67 30.00 909.67 C 20.42 909.67 10.85 909.64 1.27 909.73 C 1.28 650.15 1.27 390.58 1.27 131.00 C 1.24 87.74 1.33 44.48 1.22 1.22 M 451.71 74.10 C 441.47 70.70 431.95 65.45 421.72 62.02 C 426.41 71.69 432.68 80.48 437.87 89.88 C 430.75 98.34 423.31 106.54 416.16 114.97 C 427.08 112.79 437.75 109.40 448.77 107.76 C 452.78 114.55 456.92 121.27 460.88 128.09 C 462.32 130.56 463.95 132.92 465.70 135.18 C 467.09 124.57 467.71 113.86 468.42 103.18 C 478.87 100.03 489.66 98.30 500.20 95.52 C 490.73 90.17 480.19 87.09 470.50 82.19 C 471.26 71.41 472.68 60.67 472.96 49.85 C 465.62 57.70 458.75 65.98 451.71 74.10 M 226.42 95.29 C 220.59 114.64 213.85 133.69 207.90 153.00 C 204.18 163.89 200.94 174.94 196.94 185.73 C 169.29 185.62 141.64 185.73 114.00 185.67 C 108.93 185.62 103.86 185.63 98.81 185.99 C 102.46 189.11 106.39 191.88 110.30 194.67 C 129.81 208.83 149.30 223.03 168.81 237.19 C 171.85 239.45 175.29 241.28 177.80 244.19 C 177.16 248.86 175.11 253.17 173.76 257.66 C 165.32 284.45 156.16 311.01 147.99 337.88 C 153.25 334.61 158.14 330.79 163.16 327.17 C 181.53 313.88 199.87 300.54 218.20 287.19 C 221.39 284.94 224.34 282.23 227.98 280.71 C 231.82 282.38 234.92 285.28 238.31 287.67 C 257.43 301.56 276.54 315.48 295.69 329.34 C 299.69 332.30 303.69 335.29 307.90 337.97 C 304.39 325.21 299.83 312.77 295.83 300.16 C 290.01 281.38 283.44 262.85 277.78 244.02 C 302.80 225.60 328.06 207.49 353.14 189.16 C 354.48 188.12 355.79 187.05 357.10 185.98 C 347.07 185.36 337.03 185.81 327.00 185.68 C 304.18 185.58 281.35 185.89 258.52 185.53 C 253.31 168.89 247.86 152.32 242.38 135.76 C 237.98 121.21 232.77 106.92 228.52 92.33 C 227.01 92.49 226.90 94.18 226.42 95.29 M 526.16 142.03 C 527.65 151.03 528.72 160.09 530.17 169.10 C 530.37 170.69 530.60 172.30 530.53 173.91 C 527.59 176.46 523.81 177.71 520.39 179.47 C 514.18 182.61 507.80 185.42 501.79 188.94 C 512.27 191.53 523.05 192.57 533.67 194.41 C 535.79 205.27 536.61 216.33 538.67 227.20 C 544.28 217.76 548.81 207.71 554.26 198.17 C 565.14 200.04 576.00 202.04 586.89 203.86 C 579.34 195.80 571.51 188.00 563.92 179.98 C 568.58 170.14 574.11 160.73 578.84 150.92 C 568.75 155.15 559.30 160.75 549.24 165.05 C 541.36 157.56 534.54 148.98 526.16 142.03 M 535.80 304.96 C 524.85 305.84 513.85 305.56 502.90 306.33 C 511.67 312.70 520.71 318.70 529.80 324.59 C 527.32 335.22 523.51 345.50 521.18 356.18 C 530.14 350.11 538.17 342.79 547.03 336.58 C 556.17 342.21 564.58 348.97 573.95 354.21 C 571.31 343.92 566.24 334.40 563.77 324.09 C 565.88 321.08 569.14 319.19 571.96 316.94 C 577.69 312.43 583.65 308.20 589.04 303.27 C 578.07 303.31 567.12 304.58 556.15 304.16 C 552.30 294.03 549.06 283.67 544.93 273.65 C 541.38 283.93 538.77 294.51 535.80 304.96 M 450.75 392.92 C 440.64 389.47 430.91 384.93 420.63 382.01 C 425.69 391.44 432.25 399.96 437.90 409.03 C 431.12 417.78 424.06 426.31 417.21 434.99 C 424.56 433.09 431.88 431.09 439.19 429.02 C 442.37 428.13 445.52 427.03 448.83 426.73 C 451.34 428.76 452.89 431.66 454.64 434.33 C 458.88 440.95 463.19 447.54 467.64 454.04 C 468.02 443.02 468.69 432.01 469.09 420.99 C 479.36 417.77 489.87 415.35 500.20 412.27 C 490.65 407.07 479.93 404.56 470.07 400.03 C 470.32 393.34 470.24 386.62 470.97 379.95 C 471.42 375.65 471.67 371.34 471.78 367.02 C 464.51 375.43 457.90 384.40 450.75 392.92 Z" />
</g>
<g id="#ffff00ff">
<path fill="#ffff00" opacity="1.00" d=" M 451.71 74.10 C 458.75 65.98 465.62 57.70 472.96 49.85 C 472.68 60.67 471.26 71.41 470.50 82.19 C 480.19 87.09 490.73 90.17 500.20 95.52 C 489.66 98.30 478.87 100.03 468.42 103.18 C 467.71 113.86 467.09 124.57 465.70 135.18 C 463.95 132.92 462.32 130.56 460.88 128.09 C 456.92 121.27 452.78 114.55 448.77 107.76 C 437.75 109.40 427.08 112.79 416.16 114.97 C 423.31 106.54 430.75 98.34 437.87 89.88 C 432.68 80.48 426.41 71.69 421.72 62.02 C 431.95 65.45 441.47 70.70 451.71 74.10 Z" />
<path fill="#ffff00" opacity="1.00" d=" M 226.42 95.29 C 226.90 94.18 227.01 92.49 228.52 92.33 C 232.77 106.92 237.98 121.21 242.38 135.76 C 247.86 152.32 253.31 168.89 258.52 185.53 C 281.35 185.89 304.18 185.58 327.00 185.68 C 337.03 185.81 347.07 185.36 357.10 185.98 C 355.79 187.05 354.48 188.12 353.14 189.16 C 328.06 207.49 302.80 225.60 277.78 244.02 C 283.44 262.85 290.01 281.38 295.83 300.16 C 299.83 312.77 304.39 325.21 307.90 337.97 C 303.69 335.29 299.69 332.30 295.69 329.34 C 276.54 315.48 257.43 301.56 238.31 287.67 C 234.92 285.28 231.82 282.38 227.98 280.71 C 224.34 282.23 221.39 284.94 218.20 287.19 C 199.87 300.54 181.53 313.88 163.16 327.17 C 158.14 330.79 153.25 334.61 147.99 337.88 C 156.16 311.01 165.32 284.45 173.76 257.66 C 175.11 253.17 177.16 248.86 177.80 244.19 C 175.29 241.28 171.85 239.45 168.81 237.19 C 149.30 223.03 129.81 208.83 110.30 194.67 C 106.39 191.88 102.46 189.11 98.81 185.99 C 103.86 185.63 108.93 185.62 114.00 185.67 C 141.64 185.73 169.29 185.62 196.94 185.73 C 200.94 174.94 204.18 163.89 207.90 153.00 C 213.85 133.69 220.59 114.64 226.42 95.29 Z" />
<path fill="#ffff00" opacity="1.00" d=" M 526.16 142.03 C 534.54 148.98 541.36 157.56 549.24 165.05 C 559.30 160.75 568.75 155.15 578.84 150.92 C 574.11 160.73 568.58 170.14 563.92 179.98 C 571.51 188.00 579.34 195.80 586.89 203.86 C 576.00 202.04 565.14 200.04 554.26 198.17 C 548.81 207.71 544.28 217.76 538.67 227.20 C 536.61 216.33 535.79 205.27 533.67 194.41 C 523.05 192.57 512.27 191.53 501.79 188.94 C 507.80 185.42 514.18 182.61 520.39 179.47 C 523.81 177.71 527.59 176.46 530.53 173.91 C 530.60 172.30 530.37 170.69 530.17 169.10 C 528.72 160.09 527.65 151.03 526.16 142.03 Z" />
<path fill="#ffff00" opacity="1.00" d=" M 535.80 304.96 C 538.77 294.51 541.38 283.93 544.93 273.65 C 549.06 283.67 552.30 294.03 556.15 304.16 C 567.12 304.58 578.07 303.31 589.04 303.27 C 583.65 308.20 577.69 312.43 571.96 316.94 C 569.14 319.19 565.88 321.08 563.77 324.09 C 566.24 334.40 571.31 343.92 573.95 354.21 C 564.58 348.97 556.17 342.21 547.03 336.58 C 538.17 342.79 530.14 350.11 521.18 356.18 C 523.51 345.50 527.32 335.22 529.80 324.59 C 520.71 318.70 511.67 312.70 502.90 306.33 C 513.85 305.56 524.85 305.84 535.80 304.96 Z" />
<path fill="#ffff00" opacity="1.00" d=" M 450.75 392.92 C 457.90 384.40 464.51 375.43 471.78 367.02 C 471.67 371.34 471.42 375.65 470.97 379.95 C 470.24 386.62 470.32 393.34 470.07 400.03 C 479.93 404.56 490.65 407.07 500.20 412.27 C 489.87 415.35 479.36 417.77 469.09 420.99 C 468.69 432.01 468.02 443.02 467.64 454.04 C 463.19 447.54 458.88 440.95 454.64 434.33 C 452.89 431.66 451.34 428.76 448.83 426.73 C 445.52 427.03 442.37 428.13 439.19 429.02 C 431.88 431.09 424.56 433.09 417.21 434.99 C 424.06 426.31 431.12 417.78 437.90 409.03 C 432.25 399.96 425.69 391.44 420.63 382.01 C 430.91 384.93 440.64 389.47 450.75 392.92 Z" />
</g>
</svg>
