<?xml version="1.0" encoding="UTF-8" ?>
<!DOCTYPE svg PUBLIC "-//W3C//DTD SVG 1.1//EN" "http://www.w3.org/Graphics/SVG/1.1/DTD/svg11.dtd">
<svg width="704pt" height="149pt" viewBox="0 0 704 149" version="1.1" xmlns="http://www.w3.org/2000/svg">
<g id="#ffffffff">
<path fill="#ffffff" opacity="1.00" d=" M 440.33 26.93 C 441.73 26.64 443.14 26.40 444.58 26.23 C 442.51 44.14 439.31 61.89 437.29 79.80 C 435.66 79.78 434.04 79.76 432.42 79.74 C 434.47 66.14 436.37 52.52 438.32 38.91 C 438.90 34.91 439.07 30.80 440.33 26.93 Z" />
<path fill="#ffffff" opacity="1.00" d=" M 70.97 40.82 C 72.67 40.77 74.38 40.74 76.09 40.71 C 75.38 48.09 74.06 55.38 73.19 62.74 C 71.31 62.79 69.43 62.84 67.56 62.89 C 69.05 55.59 69.84 48.18 70.97 40.82 Z" />
<path fill="#ffffff" opacity="1.00" d=" M 86.57 114.14 C 89.42 114.16 92.28 114.26 95.13 114.40 C 95.14 116.19 95.14 117.98 95.12 119.77 C 92.29 120.15 89.45 120.44 86.61 120.70 C 86.61 118.51 86.60 116.33 86.57 114.14 Z" />
<path fill="#ffffff" opacity="1.00" d=" M 468.05 124.45 C 469.47 121.29 470.95 118.16 472.49 115.04 C 473.32 118.17 474.20 121.29 475.00 124.44 C 472.68 124.43 470.36 124.43 468.05 124.45 Z" />
<path fill="#ffffff" opacity="1.00" d=" M 86.51 126.74 C 89.65 126.93 92.79 127.16 95.92 127.50 C 95.54 129.26 95.84 131.39 94.61 132.83 C 91.92 133.59 89.09 133.44 86.33 133.58 C 86.36 131.30 86.42 129.02 86.51 126.74 Z" />
</g>
<g id="#000000ff">
<path fill="#000000" opacity="1.00" d=" M 157.07 9.71 C 165.18 9.68 173.30 9.65 181.42 9.87 C 178.79 30.96 175.66 52.00 172.64 73.05 C 171.43 80.03 170.43 87.05 169.61 94.09 C 162.50 94.37 155.38 94.41 148.29 93.88 C 148.98 88.93 149.71 83.99 150.68 79.10 C 144.16 79.32 137.70 80.34 131.20 80.93 C 131.82 77.26 132.45 73.60 133.09 69.94 C 139.56 69.27 146.03 68.60 152.46 67.55 C 153.34 59.44 154.69 51.38 155.33 43.24 C 149.57 43.23 143.82 43.24 138.06 43.07 C 138.48 39.42 138.87 35.77 139.23 32.11 C 145.31 31.90 151.38 32.01 157.45 31.85 C 158.08 26.88 159.19 21.96 159.48 16.95 C 159.83 14.27 158.15 12.00 157.07 9.71 Z" />
<path fill="#000000" opacity="1.00" d=" M 191.74 9.85 C 199.89 9.78 208.04 9.80 216.18 9.99 C 215.02 18.25 213.99 26.53 212.42 34.72 C 219.59 31.58 226.91 28.77 234.01 25.45 C 233.45 29.73 233.51 34.15 232.17 38.29 C 230.62 39.86 228.46 40.60 226.49 41.47 C 221.27 43.54 216.07 45.65 210.89 47.80 C 209.13 58.16 207.76 68.59 206.68 79.05 C 211.46 79.17 216.26 79.47 221.04 79.19 C 224.38 79.17 226.96 76.83 229.59 75.10 C 228.50 80.89 227.60 86.71 226.39 92.48 C 212.07 92.46 197.73 92.56 183.41 92.22 C 185.75 74.52 188.58 56.89 190.76 39.16 C 191.62 31.77 193.49 24.52 193.88 17.08 C 194.08 14.48 192.69 12.17 191.74 9.85 Z" />
<path fill="#000000" opacity="1.00" d=" M 28.17 11.29 C 34.80 11.36 41.43 11.39 48.05 11.34 C 48.71 18.00 49.07 24.68 49.51 31.36 C 42.81 31.53 36.11 31.42 29.40 31.45 C 28.93 24.73 28.57 18.01 28.17 11.29 Z" />
<path fill="#000000" opacity="1.00" d=" M 495.36 11.03 C 502.18 11.25 509.00 11.12 515.81 11.29 C 515.18 16.08 514.51 20.86 513.46 25.57 C 517.11 25.54 520.76 25.58 524.41 25.70 C 523.88 29.41 523.26 33.11 522.52 36.79 C 519.07 36.77 515.63 36.72 512.18 36.60 C 510.01 49.05 508.54 61.62 506.63 74.12 C 505.58 81.25 504.92 88.44 503.40 95.50 C 497.50 95.54 491.60 95.54 485.70 95.33 C 486.92 84.16 488.79 73.08 490.33 61.95 C 491.39 53.55 493.16 45.27 493.95 36.83 C 489.66 36.69 485.38 36.65 481.10 36.61 C 481.59 32.88 482.11 29.15 482.56 25.42 C 486.82 25.40 491.07 25.40 495.33 25.43 C 495.98 22.76 496.71 20.11 497.05 17.39 C 497.40 15.12 496.17 13.06 495.36 11.03 Z" />
<path fill="#000000" opacity="1.00" d=" M 54.63 11.98 C 61.74 11.46 68.88 11.75 76.00 11.74 C 91.93 11.89 107.86 11.68 123.79 12.16 C 123.27 15.84 122.78 19.52 122.30 23.21 C 120.88 23.54 119.47 23.87 118.05 24.21 C 115.12 43.82 112.19 63.43 109.49 83.07 C 108.99 85.83 108.88 88.82 107.32 91.24 C 105.62 93.49 102.55 93.59 99.98 93.69 C 94.27 93.77 88.56 93.64 82.85 93.57 C 85.02 91.18 87.37 88.95 89.39 86.42 C 91.24 84.22 91.37 81.20 91.87 78.49 C 93.54 65.64 95.56 52.84 97.31 40.00 C 98.00 34.69 99.24 29.44 99.38 24.07 C 98.12 23.16 96.47 23.43 95.02 23.29 C 81.06 23.25 67.09 23.54 53.13 23.08 C 53.65 19.38 54.20 15.69 54.63 11.98 Z" />
<path fill="#000000" opacity="1.00" d=" M 605.15 11.74 C 610.30 11.71 615.45 11.72 620.60 11.81 C 620.20 15.98 619.65 20.13 619.33 24.31 C 622.20 24.36 625.07 24.40 627.95 24.42 C 627.54 28.10 627.14 31.78 626.76 35.46 C 623.65 35.48 620.49 35.31 617.43 35.93 C 615.01 48.27 614.04 60.87 612.06 73.29 C 611.07 80.76 609.73 88.20 609.12 95.71 C 604.18 96.08 599.22 96.04 594.29 95.77 C 597.55 75.72 600.39 55.60 602.97 35.46 C 600.16 35.38 597.36 35.31 594.56 35.21 C 594.92 31.65 595.33 28.11 595.77 24.56 C 598.81 24.45 601.86 24.41 604.91 24.42 C 605.50 20.22 605.81 15.95 605.15 11.74 Z" />
<path fill="#000000" opacity="1.00" d=" M 660.18 11.71 C 664.95 11.69 669.73 11.73 674.51 11.80 C 674.96 15.81 675.29 19.84 675.51 23.88 C 680.56 24.00 685.61 24.01 690.67 24.00 C 690.34 27.69 689.88 31.37 689.50 35.05 C 685.09 35.24 680.67 35.26 676.26 35.30 C 676.83 42.62 677.08 49.96 677.88 57.26 C 681.14 54.87 684.31 52.36 687.57 49.96 C 687.02 54.18 686.63 58.44 685.69 62.59 C 685.01 66.49 681.29 68.57 678.63 71.07 C 678.85 75.20 679.16 79.33 679.75 83.43 C 681.54 82.13 683.28 80.75 685.00 79.35 C 683.90 84.87 683.13 90.44 682.53 96.03 C 677.21 96.43 671.88 96.35 666.56 96.24 C 665.94 91.47 665.56 86.66 665.27 81.86 C 662.16 84.27 659.03 86.66 655.74 88.81 C 656.07 84.77 656.43 80.71 657.27 76.73 C 657.97 72.78 661.80 70.68 664.48 68.12 C 663.74 57.17 662.81 46.22 662.45 35.25 C 651.52 35.03 640.57 35.37 629.64 34.92 C 630.15 31.19 630.78 27.47 631.55 23.78 C 641.60 23.74 651.65 23.99 661.70 23.79 C 661.38 19.75 660.96 15.70 660.18 11.71 Z" />
<path fill="#000000" opacity="1.00" d=" M 677.34 11.78 C 681.43 11.76 685.51 11.79 689.60 11.94 C 689.72 15.22 689.88 18.49 690.01 21.77 C 685.93 21.75 681.85 21.73 677.77 21.73 C 677.56 18.42 677.40 15.10 677.34 11.78 Z" />
<path fill="#000000" opacity="1.00" d=" M 259.87 12.66 C 265.24 12.45 270.62 12.51 276.00 12.55 C 300.25 12.66 324.50 12.74 348.75 12.89 C 348.56 16.53 348.17 20.16 347.77 23.79 C 338.02 23.97 328.26 23.40 318.52 23.99 C 317.52 30.24 316.61 36.50 315.97 42.79 C 324.79 42.87 333.62 42.80 342.44 42.91 C 342.07 46.53 341.64 50.14 341.34 53.77 C 332.28 53.98 323.21 53.59 314.15 53.86 C 313.18 63.17 311.33 72.36 310.22 81.65 C 321.29 81.86 332.37 81.64 343.44 81.91 C 343.06 85.60 342.63 89.28 342.15 92.95 C 328.44 93.36 314.71 93.01 301.00 92.90 C 282.04 92.91 263.08 92.86 244.12 92.71 C 244.54 88.95 244.95 85.20 245.37 81.45 C 248.72 81.46 252.08 81.47 255.44 81.50 C 257.55 69.48 259.22 57.39 260.92 45.32 C 261.11 43.32 261.53 41.28 261.10 39.29 C 260.36 37.67 259.29 36.24 258.32 34.77 C 266.31 34.92 274.31 34.74 282.30 34.97 C 280.06 50.55 278.03 66.16 275.52 81.70 C 279.65 81.62 283.78 81.63 287.92 81.63 C 290.63 62.33 293.57 43.07 296.19 23.75 C 283.71 23.38 271.22 23.71 258.75 23.34 C 259.09 19.78 259.46 16.22 259.87 12.66 Z" />
<path fill="#000000" opacity="1.00" d=" M 369.65 15.04 C 385.97 14.46 402.28 13.05 418.62 13.39 C 418.15 16.91 417.63 20.42 417.10 23.93 C 412.26 24.26 407.43 24.53 402.59 24.72 C 402.12 27.42 401.64 30.11 401.15 32.80 C 406.42 33.08 411.70 33.16 416.98 33.21 C 416.57 36.76 416.10 40.31 415.66 43.85 C 410.38 44.04 405.10 44.03 399.83 44.07 C 397.30 60.43 395.55 76.91 392.33 93.15 C 385.70 93.23 379.06 93.35 372.45 92.82 C 374.14 84.59 375.05 76.22 376.33 67.91 C 377.38 59.93 378.81 52.00 379.57 43.98 C 374.55 43.87 369.53 43.86 364.51 43.83 C 364.86 40.21 365.29 36.60 365.77 32.99 C 370.90 32.86 376.04 32.84 381.17 32.89 C 381.60 30.49 382.02 28.09 382.42 25.69 C 377.57 25.66 372.72 25.83 367.88 25.96 C 368.41 22.31 369.01 18.67 369.65 15.04 Z" />
<path fill="#000000" opacity="1.00" d=" M 421.28 15.09 C 435.16 15.45 449.05 15.18 462.93 15.35 C 461.04 31.27 458.16 47.06 456.21 62.97 C 455.09 72.30 453.47 81.55 452.50 90.89 C 439.88 91.51 427.23 91.12 414.61 90.97 C 416.43 74.85 419.14 58.85 421.26 42.78 C 422.13 35.84 423.54 28.96 424.09 21.98 C 424.33 19.36 422.44 17.26 421.28 15.09 M 440.33 26.93 C 439.07 30.80 438.90 34.91 438.32 38.91 C 436.37 52.52 434.47 66.14 432.42 79.74 C 434.04 79.76 435.66 79.78 437.29 79.80 C 439.31 61.89 442.51 44.14 444.58 26.23 C 443.14 26.40 441.73 26.64 440.33 26.93 Z" />
<path fill="#000000" opacity="1.00" d=" M 528.46 15.10 C 543.96 14.51 559.47 15.12 574.97 15.24 C 572.84 28.68 571.06 42.16 569.09 55.61 C 567.98 64.71 566.10 73.72 565.72 82.90 C 568.38 81.82 570.82 80.29 573.03 78.46 C 571.71 84.11 571.04 89.89 570.09 95.61 C 561.98 95.57 553.88 95.53 545.78 95.55 C 546.68 86.31 548.29 77.17 549.51 67.98 C 551.58 54.06 553.40 40.10 555.65 26.21 C 552.21 26.14 548.77 26.13 545.33 26.18 C 544.29 33.52 542.90 40.81 541.39 48.07 C 538.15 63.78 536.02 79.70 532.25 95.31 C 526.17 95.45 520.09 95.45 514.01 95.30 C 516.10 82.48 518.75 69.76 520.89 56.96 C 523.18 42.96 526.33 29.13 528.46 15.10 Z" />
<path fill="#000000" opacity="1.00" d=" M 56.17 31.25 C 68.77 31.29 81.37 31.32 93.97 31.31 C 92.59 44.93 90.11 58.40 88.18 71.94 C 75.54 72.04 62.89 72.03 50.25 71.75 C 52.28 58.26 54.09 44.74 56.17 31.25 M 70.97 40.82 C 69.84 48.18 69.05 55.59 67.56 62.89 C 69.43 62.84 71.31 62.79 73.19 62.74 C 74.06 55.38 75.38 48.09 76.09 40.71 C 74.38 40.74 72.67 40.77 70.97 40.82 Z" />
<path fill="#000000" opacity="1.00" d=" M 24.96 35.92 C 31.61 35.81 38.27 35.80 44.93 36.08 C 45.26 42.72 45.73 49.35 46.19 55.98 C 39.51 56.03 32.83 56.03 26.16 55.90 C 25.58 49.25 25.16 42.59 24.96 35.92 Z" />
<path fill="#000000" opacity="1.00" d=" M 618.48 39.38 C 620.60 39.45 622.72 39.48 624.85 39.50 C 623.58 54.75 621.59 69.92 620.26 85.17 C 618.06 85.18 615.86 85.18 613.67 85.17 C 615.37 69.92 616.62 54.62 618.48 39.38 Z" />
<path fill="#000000" opacity="1.00" d=" M 483.76 40.00 C 486.36 40.00 488.96 40.00 491.57 40.00 C 489.03 57.20 484.73 74.07 481.89 91.22 C 479.15 91.28 476.41 91.31 473.67 91.30 C 476.74 74.14 479.98 57.01 483.76 40.00 Z" />
<path fill="#000000" opacity="1.00" d=" M 512.82 39.91 C 515.45 39.87 518.08 39.83 520.72 39.81 C 519.56 54.73 516.70 69.46 515.01 84.32 C 512.34 84.40 509.67 84.44 507.00 84.47 C 508.49 69.57 510.85 54.76 512.82 39.91 Z" />
<path fill="#000000" opacity="1.00" d=" M 594.63 39.59 C 596.70 39.58 598.78 39.58 600.86 39.59 C 600.14 47.36 598.36 54.97 597.09 62.66 C 595.82 70.35 594.47 78.02 593.25 85.71 C 592.89 87.71 592.58 89.79 591.54 91.58 C 589.45 91.82 587.34 91.78 585.25 91.82 C 586.56 83.54 588.30 75.34 589.71 67.07 C 591.34 57.91 592.48 48.66 594.63 39.59 Z" />
<path fill="#000000" opacity="1.00" d=" M 633.75 39.83 C 637.82 39.79 641.90 39.78 645.98 39.82 C 645.15 44.21 644.31 48.61 643.38 52.99 C 643.99 52.94 645.22 52.84 645.83 52.79 C 646.61 48.56 647.25 44.30 647.84 40.04 C 652.27 39.95 656.70 39.96 661.12 40.11 C 660.63 43.86 659.59 47.57 659.63 51.37 C 660.38 52.47 661.31 53.42 662.20 54.41 C 661.86 57.07 661.41 59.72 660.86 62.34 C 659.53 63.40 657.22 63.90 657.17 65.93 C 655.76 75.92 654.44 85.93 652.99 95.91 C 648.58 96.03 644.18 96.03 639.77 95.98 C 641.09 84.95 643.23 74.00 643.80 62.90 C 640.82 64.65 640.53 68.22 639.89 71.27 C 638.43 79.46 636.71 87.60 635.30 95.80 C 630.53 96.02 625.75 95.98 620.99 95.78 C 623.46 85.09 625.98 74.40 628.09 63.62 C 627.12 63.42 625.19 63.00 624.22 62.79 C 624.67 59.56 625.14 56.34 625.68 53.12 C 627.45 52.88 629.23 52.63 631.02 52.36 C 631.65 48.13 632.69 43.97 633.75 39.83 Z" />
<path fill="#000000" opacity="1.00" d=" M 365.74 48.54 C 369.34 48.50 372.94 48.52 376.55 48.62 C 374.12 61.99 371.30 75.28 368.71 88.62 C 365.12 88.61 361.53 88.60 357.94 88.60 C 359.93 75.13 363.14 61.89 365.74 48.54 Z" />
<path fill="#000000" opacity="1.00" d=" M 401.58 48.71 C 405.19 48.66 408.81 48.65 412.43 48.68 C 412.06 54.29 411.52 59.89 411.11 65.50 C 410.52 73.24 409.29 80.94 409.29 88.71 C 405.53 88.77 401.78 88.79 398.03 88.80 C 398.67 75.39 400.36 62.07 401.58 48.71 Z" />
<path fill="#000000" opacity="1.00" d=" M 25.76 60.56 C 32.30 60.51 38.84 60.44 45.37 60.80 C 41.91 71.86 38.18 82.85 33.98 93.66 C 27.36 93.65 20.73 93.65 14.11 93.59 C 17.90 82.54 21.79 71.54 25.76 60.56 Z" />
<path fill="#000000" opacity="1.00" d=" M 11.48 107.64 C 14.94 107.76 18.40 107.77 21.86 107.67 C 21.71 111.69 21.47 115.71 21.25 119.72 C 25.52 119.74 29.80 119.74 34.07 119.75 C 34.26 115.83 34.38 111.91 34.41 107.99 C 37.82 107.92 41.23 107.89 44.64 107.86 C 44.46 118.52 43.22 129.14 43.61 139.81 C 40.11 139.83 36.62 139.84 33.13 139.87 C 33.31 135.60 33.49 131.33 33.51 127.06 C 29.33 127.08 25.16 127.09 20.99 127.12 C 20.83 131.33 20.76 135.54 20.77 139.75 C 17.31 139.76 13.84 139.74 10.38 139.66 C 10.80 128.99 11.64 118.33 11.48 107.64 Z" />
<path fill="#000000" opacity="1.00" d=" M 48.44 108.04 C 57.19 107.77 65.94 107.77 74.68 108.07 C 74.60 110.32 74.54 112.56 74.51 114.82 C 69.20 114.91 63.90 114.90 58.60 114.93 C 58.54 116.70 58.48 118.47 58.45 120.24 C 62.82 120.30 67.19 120.29 71.57 120.27 C 71.48 122.51 71.42 124.75 71.40 127.00 C 66.75 127.33 62.09 127.36 57.43 127.42 C 57.42 129.42 57.41 131.42 57.38 133.42 C 62.69 133.25 68.01 133.21 73.32 133.17 C 73.23 135.38 73.13 137.59 73.04 139.80 C 64.37 139.86 55.70 139.84 47.03 139.79 C 47.57 129.21 48.55 118.64 48.44 108.04 Z" />
<path fill="#000000" opacity="1.00" d=" M 77.56 107.94 C 83.40 107.94 89.23 107.64 95.07 107.74 C 97.84 107.87 101.01 107.96 103.14 110.00 C 105.30 112.26 105.62 115.79 104.81 118.69 C 104.12 121.10 101.69 122.25 99.77 123.54 C 101.39 124.45 103.32 125.10 104.47 126.66 C 106.55 130.53 105.48 136.21 101.50 138.45 C 99.25 139.68 96.60 139.67 94.11 139.81 C 88.21 139.94 82.31 139.79 76.42 139.88 C 77.31 129.25 77.26 118.59 77.56 107.94 M 86.57 114.14 C 86.60 116.33 86.61 118.51 86.61 120.70 C 89.45 120.44 92.29 120.15 95.12 119.77 C 95.14 117.98 95.14 116.19 95.13 114.40 C 92.28 114.26 89.42 114.16 86.57 114.14 M 86.51 126.74 C 86.42 129.02 86.36 131.30 86.33 133.58 C 89.09 133.44 91.92 133.59 94.61 132.83 C 95.84 131.39 95.54 129.26 95.92 127.50 C 92.79 127.16 89.65 126.93 86.51 126.74 Z" />
<path fill="#000000" opacity="1.00" d=" M 109.20 108.05 C 117.86 108.10 126.52 108.11 135.18 108.09 C 135.13 110.42 135.08 112.74 135.02 115.07 C 129.71 115.12 124.41 115.10 119.10 115.21 C 119.11 117.00 119.13 118.79 119.14 120.58 C 123.49 120.54 127.84 120.51 132.19 120.59 C 132.05 122.91 131.91 125.24 131.76 127.56 C 127.34 127.43 122.91 127.47 118.49 127.59 C 118.43 129.50 118.39 131.41 118.36 133.32 C 123.57 133.30 128.78 133.26 133.99 133.17 C 133.91 135.41 133.82 137.66 133.75 139.91 C 125.03 140.07 116.32 140.01 107.60 139.96 C 108.68 129.35 108.87 118.70 109.20 108.05 Z" />
<path fill="#000000" opacity="1.00" d=" M 138.17 108.05 C 141.61 108.07 145.06 108.06 148.50 108.03 C 148.06 118.64 147.14 129.24 147.48 139.87 C 144.03 139.96 140.58 140.00 137.14 140.06 C 137.25 129.38 138.20 118.73 138.17 108.05 Z" />
<path fill="#000000" opacity="1.00" d=" M 151.68 108.02 C 161.02 108.21 170.37 107.90 179.70 108.30 C 179.37 110.45 179.26 112.66 178.54 114.73 C 177.72 116.40 176.34 117.71 175.10 119.08 C 170.76 123.56 166.47 128.11 162.66 133.06 C 167.66 133.27 172.66 133.20 177.66 133.19 C 177.59 135.41 177.54 137.64 177.51 139.86 C 168.01 140.09 158.51 140.07 149.01 139.86 C 149.42 136.94 149.00 133.52 151.22 131.21 C 155.94 125.80 161.42 121.03 165.69 115.21 C 160.99 114.90 156.28 114.87 151.58 115.03 C 151.60 112.69 151.64 110.35 151.68 108.02 Z" />
<path fill="#000000" opacity="1.00" d=" M 181.84 108.05 C 185.26 108.06 188.67 108.06 192.08 108.04 C 191.89 112.00 191.70 115.95 191.61 119.91 C 195.90 119.90 200.19 119.89 204.48 119.81 C 204.50 115.89 204.61 111.96 204.73 108.04 C 208.30 108.09 211.87 108.13 215.44 108.19 C 214.12 118.71 213.66 129.33 213.71 139.93 C 210.27 139.98 206.84 140.00 203.40 140.03 C 203.48 135.75 203.71 131.48 203.86 127.20 C 199.64 127.21 195.43 127.21 191.22 127.22 C 191.04 131.46 190.84 135.71 190.77 139.96 C 187.34 139.98 183.91 139.99 180.49 140.00 C 181.28 129.37 181.57 118.71 181.84 108.05 Z" />
<path fill="#000000" opacity="1.00" d=" M 218.44 108.11 C 227.12 108.03 235.79 108.18 244.47 108.05 C 244.42 110.40 244.35 112.76 244.27 115.12 C 238.95 115.12 233.64 115.08 228.32 115.24 C 228.31 117.01 228.30 118.79 228.29 120.57 C 232.64 120.54 237.00 120.53 241.36 120.54 C 241.29 122.80 241.22 125.07 241.16 127.34 C 236.71 127.40 232.27 127.44 227.83 127.40 C 227.70 129.34 227.58 131.28 227.48 133.23 C 232.81 133.33 238.14 133.25 243.47 133.25 C 243.41 135.44 243.38 137.62 243.38 139.81 C 234.69 140.18 226.00 139.94 217.31 140.00 C 217.31 129.36 218.65 118.76 218.44 108.11 Z" />
<path fill="#000000" opacity="1.00" d=" M 247.49 108.13 C 251.56 108.07 255.64 108.08 259.72 108.12 C 263.52 115.15 267.41 122.11 271.33 129.07 C 271.33 122.06 271.70 115.06 271.93 108.06 C 275.10 108.10 278.27 108.14 281.45 108.19 C 280.26 118.72 279.61 129.31 279.47 139.90 C 275.42 140.01 271.38 140.01 267.34 139.88 C 263.67 133.20 259.76 126.65 256.09 119.97 C 255.46 126.63 255.39 133.32 255.19 139.99 C 252.17 139.98 249.16 139.98 246.14 139.97 C 246.94 129.38 247.50 118.75 247.49 108.13 Z" />
<path fill="#000000" opacity="1.00" d=" M 289.90 110.87 C 297.16 106.11 306.32 107.35 314.43 108.59 C 314.59 111.16 314.76 113.74 314.98 116.31 C 309.50 114.92 303.40 113.45 298.02 115.99 C 294.29 117.70 292.39 121.97 292.66 125.94 C 292.69 128.77 293.95 131.98 296.79 133.06 C 299.63 133.96 302.67 133.63 305.60 133.65 C 305.69 131.89 305.79 130.13 305.89 128.37 C 304.47 128.14 303.05 127.92 301.64 127.71 C 301.74 125.60 301.84 123.49 301.94 121.38 C 306.53 121.41 311.12 121.42 315.71 121.37 C 315.34 127.44 315.21 133.54 314.66 139.60 C 308.28 140.44 301.77 141.52 295.37 140.27 C 291.53 139.59 287.53 138.05 285.24 134.71 C 280.27 127.23 282.16 115.78 289.90 110.87 Z" />
<path fill="#000000" opacity="1.00" d=" M 319.35 108.27 C 322.82 108.30 326.30 108.30 329.77 108.27 C 329.52 112.16 329.30 116.06 329.14 119.97 C 333.40 120.08 337.67 120.09 341.94 120.04 C 342.09 116.11 342.22 112.19 342.32 108.27 C 345.80 108.31 349.29 108.32 352.78 108.31 C 352.05 118.89 351.10 129.49 351.49 140.11 C 347.83 140.21 344.18 140.19 340.53 140.01 C 341.01 135.84 341.33 131.66 341.50 127.48 C 337.28 127.33 333.06 127.34 328.85 127.49 C 328.75 131.69 328.65 135.89 328.59 140.10 C 325.06 140.18 321.53 140.20 318.00 140.19 C 318.79 129.57 319.45 118.93 319.35 108.27 Z" />
<path fill="#000000" opacity="1.00" d=" M 356.36 108.25 C 364.99 108.32 373.63 108.38 382.26 108.24 C 382.24 110.55 382.20 112.87 382.16 115.19 C 376.85 115.25 371.54 115.22 366.23 115.28 C 366.19 117.09 366.15 118.90 366.12 120.71 C 370.52 120.74 374.92 120.73 379.32 120.75 C 379.05 123.00 378.77 125.25 378.48 127.51 C 374.10 127.52 369.73 127.56 365.35 127.55 C 365.32 129.55 365.29 131.54 365.26 133.54 C 370.51 133.43 375.77 133.37 381.02 133.43 C 380.86 135.68 380.69 137.93 380.51 140.18 C 372.02 140.25 363.53 140.24 355.05 140.17 C 355.38 129.52 356.26 118.90 356.36 108.25 Z" />
<path fill="#000000" opacity="1.00" d=" M 414.48 108.28 C 418.82 108.29 423.17 108.30 427.52 108.34 C 428.94 114.95 430.60 121.51 431.86 128.15 C 434.10 121.58 436.25 114.97 438.49 108.40 C 442.89 108.31 447.30 108.32 451.72 108.30 C 451.34 118.23 450.95 128.18 451.02 138.12 C 456.37 128.31 461.74 118.49 466.52 108.39 C 470.62 108.29 474.72 108.31 478.82 108.33 C 482.76 118.93 486.75 129.51 490.38 140.23 C 486.82 140.24 483.26 140.20 479.71 139.93 C 478.85 137.07 478.53 133.82 476.55 131.46 C 472.89 130.98 469.13 130.94 465.48 131.53 C 463.50 134.09 462.58 137.29 460.62 139.86 C 454.61 140.73 448.50 140.10 442.46 140.18 C 442.40 132.75 442.96 125.35 443.27 117.94 C 439.73 124.89 438.06 132.62 435.58 139.99 C 432.56 140.13 429.54 140.16 426.52 140.09 C 425.13 132.61 423.55 125.15 421.47 117.83 C 420.81 125.21 420.45 132.60 420.35 140.01 C 417.56 140.11 414.77 140.19 411.98 140.25 C 413.06 129.62 413.85 118.95 414.48 108.28 M 468.05 124.45 C 470.36 124.43 472.68 124.43 475.00 124.44 C 474.20 121.29 473.32 118.17 472.49 115.04 C 470.95 118.16 469.47 121.29 468.05 124.45 Z" />
<path fill="#000000" opacity="1.00" d=" M 502.74 108.64 C 507.93 107.05 513.41 107.73 518.70 108.34 C 518.74 110.79 518.79 113.24 518.84 115.69 C 514.95 115.39 510.99 114.76 507.13 115.56 C 500.38 117.19 497.87 127.36 503.20 131.85 C 507.63 134.81 513.27 133.23 518.23 133.08 C 517.79 135.55 517.35 138.02 516.88 140.48 C 511.32 140.88 505.52 141.61 500.17 139.64 C 495.75 138.00 491.63 134.50 490.59 129.73 C 489.74 125.88 489.90 121.74 491.32 118.04 C 493.26 113.24 497.85 109.96 502.74 108.64 Z" />
<path fill="#000000" opacity="1.00" d=" M 544.70 108.52 C 548.31 108.52 551.92 108.51 555.54 108.48 C 554.26 119.13 553.95 129.87 553.79 140.59 C 550.28 140.50 546.77 140.50 543.26 140.54 C 543.61 136.16 543.88 131.78 543.99 127.39 C 539.75 127.39 535.52 127.39 531.29 127.35 C 531.22 131.68 531.12 136.01 530.92 140.33 C 527.49 140.38 524.07 140.39 520.65 140.37 C 521.12 129.80 521.73 119.22 522.00 108.64 C 525.42 108.57 528.84 108.56 532.26 108.57 C 532.09 112.46 531.88 116.35 531.74 120.25 C 535.95 120.30 540.16 120.30 544.38 120.24 C 544.59 116.34 544.71 112.43 544.70 108.52 Z" />
<path fill="#000000" opacity="1.00" d=" M 638.44 108.45 C 644.30 108.62 650.17 108.14 656.04 108.38 C 659.08 108.58 662.44 108.93 664.77 111.12 C 667.36 113.42 667.54 117.39 666.50 120.49 C 665.37 123.42 662.35 124.87 659.94 126.59 C 661.69 131.21 663.73 135.71 665.52 140.31 C 662.38 140.40 659.21 140.70 656.10 140.19 C 654.79 139.65 654.58 138.05 653.99 136.93 C 652.34 132.50 650.98 127.97 649.64 123.45 C 651.90 122.77 654.38 122.47 656.36 121.07 C 657.50 119.61 657.67 117.30 656.32 115.91 C 653.52 114.87 650.46 115.24 647.54 115.15 C 647.27 123.55 647.25 131.95 646.92 140.34 C 643.63 140.38 640.35 140.38 637.07 140.34 C 637.77 129.73 638.60 119.10 638.44 108.45 Z" />
<path fill="#000000" opacity="1.00" d=" M 558.67 108.63 C 561.99 108.57 565.33 108.56 568.66 108.56 C 568.55 119.14 567.54 129.69 567.68 140.27 C 564.24 140.37 560.80 140.40 557.36 140.40 C 557.58 129.80 558.52 119.24 558.67 108.63 Z" />
<path fill="#000000" opacity="1.00" d=" M 572.81 108.62 C 576.48 108.57 580.20 108.22 583.85 108.80 C 585.62 109.82 586.50 111.82 587.57 113.48 C 590.44 118.74 593.16 124.08 596.27 129.20 C 596.58 122.34 596.77 115.48 596.91 108.62 C 599.93 108.60 602.96 108.61 605.99 108.66 C 605.25 119.16 604.65 129.68 604.56 140.20 C 600.78 140.39 596.96 140.81 593.21 140.18 C 591.68 139.24 590.91 137.51 589.96 136.06 C 586.90 130.66 583.95 125.21 580.74 119.90 C 580.77 126.72 580.52 133.53 580.28 140.35 C 577.30 140.38 574.32 140.38 571.34 140.38 C 571.56 129.78 572.69 119.23 572.81 108.62 Z" />
<path fill="#000000" opacity="1.00" d=" M 609.58 108.60 C 618.18 108.50 626.78 108.54 635.38 108.61 C 635.33 110.85 635.27 113.08 635.21 115.32 C 630.18 115.38 625.15 115.06 620.13 115.43 C 619.30 117.03 619.34 118.89 619.03 120.63 C 623.55 120.87 628.08 120.85 632.60 120.64 C 632.52 122.98 632.46 125.31 632.44 127.65 C 627.79 127.68 623.14 127.71 618.51 128.09 C 618.48 129.94 618.45 131.78 618.41 133.63 C 623.73 133.56 629.04 133.49 634.36 133.49 C 634.25 135.78 634.14 138.08 634.04 140.37 C 625.35 140.45 616.66 140.46 607.98 140.33 C 609.07 129.78 609.32 119.19 609.58 108.60 Z" />
<path fill="#000000" opacity="1.00" d=" M 665.59 108.66 C 669.08 108.56 672.58 108.55 676.08 108.56 C 677.81 112.12 679.55 115.68 681.38 119.20 C 683.74 115.75 685.92 112.18 688.03 108.57 C 691.53 108.56 695.04 108.60 698.54 108.77 C 695.86 113.57 692.69 118.06 689.49 122.52 C 687.88 124.88 686.00 127.28 685.64 130.20 C 685.18 133.63 685.19 137.10 684.99 140.55 C 681.71 140.49 678.43 140.49 675.15 140.56 C 675.29 137.02 675.63 133.48 675.59 129.94 C 675.66 126.80 673.91 124.08 672.48 121.43 C 670.05 117.24 667.64 113.05 665.59 108.66 Z" />
</g>
</svg>
