<?xml version="1.0" encoding="UTF-8" ?>
<!DOCTYPE svg PUBLIC "-//W3C//DTD SVG 1.1//EN" "http://www.w3.org/Graphics/SVG/1.1/DTD/svg11.dtd">
<svg width="1011pt" height="969pt" viewBox="0 0 1011 969" version="1.1" xmlns="http://www.w3.org/2000/svg">
<g id="#ffffffff">
<path fill="#ffffff" opacity="1.00" d=" M 219.35 496.41 C 227.22 495.16 235.29 497.81 241.77 502.22 C 245.39 504.64 248.11 508.22 249.65 512.27 C 252.46 519.46 255.49 527.14 254.05 535.00 C 252.32 542.95 246.89 549.67 240.41 554.36 C 230.39 560.79 216.68 560.59 206.60 554.37 C 198.95 549.36 193.54 540.98 192.18 531.93 C 191.34 526.71 193.07 521.59 194.76 516.72 C 196.08 513.02 197.43 509.13 200.32 506.33 C 205.49 501.24 212.14 497.55 219.35 496.41 M 218.35 504.42 C 212.40 505.85 206.87 509.37 203.53 514.56 C 197.45 523.40 198.58 536.30 205.99 544.04 C 213.50 552.51 227.31 553.86 236.61 547.60 C 241.44 544.32 245.23 539.35 246.59 533.63 C 248.79 525.35 245.83 516.14 239.80 510.20 C 234.06 505.15 225.87 502.67 218.35 504.42 Z" />
</g>
<g id="#feda14ff">
<path fill="#feda14" opacity="1.00" d=" M 428.65 130.78 C 434.47 129.59 440.26 127.68 446.29 128.19 C 443.06 130.51 439.49 132.28 435.78 133.70 C 432.35 135.05 429.09 136.78 425.81 138.46 C 421.05 140.31 416.66 142.95 412.51 145.90 C 407.36 149.02 401.88 151.56 396.82 154.83 C 370.38 171.28 345.79 190.75 324.06 213.07 C 295.26 241.82 271.31 275.21 251.94 310.94 C 245.97 322.53 240.01 334.17 235.13 346.28 C 212.14 345.87 189.13 346.23 166.12 346.08 C 164.17 345.73 162.26 345.20 160.36 344.62 C 163.73 337.60 167.60 330.83 170.86 323.77 C 173.49 318.00 177.43 312.99 180.55 307.50 C 188.08 295.58 195.74 283.67 204.81 272.84 C 207.76 268.82 210.64 264.72 214.17 261.17 C 220.44 254.72 225.24 246.99 231.90 240.90 C 238.10 235.10 243.66 228.60 250.38 223.38 C 257.27 217.99 263.27 211.57 270.17 206.21 C 286.08 194.17 302.31 182.45 319.81 172.82 C 331.11 166.04 343.03 160.43 354.95 154.88 C 360.81 151.70 367.24 149.85 373.42 147.41 C 380.72 144.49 388.35 142.50 395.68 139.65 C 406.51 136.16 417.51 133.13 428.65 130.78 Z" />
<path fill="#feda14" opacity="1.00" d=" M 544.45 149.36 C 552.56 148.00 560.80 147.67 569.01 147.62 C 581.33 147.66 593.66 147.58 605.99 147.65 C 611.27 147.79 616.59 147.63 621.82 148.57 C 628.97 150.20 636.41 149.56 643.57 151.26 C 653.69 152.41 663.60 154.88 673.45 157.41 C 679.21 159.06 685.17 159.99 690.80 162.10 C 696.45 164.16 702.36 165.49 707.86 167.97 C 714.48 171.24 721.49 173.59 728.18 176.71 C 735.69 180.16 743.35 183.33 750.61 187.31 C 758.75 191.81 767.09 195.97 774.87 201.08 C 790.70 210.93 805.52 222.27 820.06 233.90 C 824.46 237.91 828.70 242.13 833.74 245.37 C 844.51 254.19 853.25 265.12 862.83 275.16 C 865.94 278.46 868.03 282.52 869.96 286.59 C 866.23 283.14 862.29 279.93 858.17 276.98 C 809.08 239.93 748.45 218.70 687.06 216.09 C 648.04 214.17 608.81 220.37 571.83 232.79 C 518.46 251.38 470.23 284.71 434.42 328.47 C 429.52 334.29 424.75 340.23 420.58 346.61 C 372.67 346.75 324.75 346.57 276.83 346.70 C 275.57 346.70 274.31 346.70 273.05 346.71 C 272.29 346.71 270.75 346.70 269.98 346.70 C 268.59 346.68 267.21 346.67 265.83 346.65 C 267.39 342.21 269.80 338.18 272.22 334.17 C 280.44 319.69 289.47 305.67 299.19 292.15 C 303.08 287.39 307.09 282.73 310.94 277.93 C 314.20 274.17 316.78 269.85 320.39 266.41 C 330.89 256.92 340.31 246.31 350.78 236.79 C 359.79 229.05 369.06 221.62 378.69 214.67 C 391.26 205.22 404.89 197.32 418.49 189.49 C 424.94 185.68 431.99 183.09 438.62 179.62 C 450.40 173.86 462.66 169.10 475.13 165.03 C 479.32 163.38 483.57 161.86 488.01 160.99 C 493.57 159.90 498.86 157.74 504.42 156.62 C 511.08 155.26 517.70 153.67 524.39 152.41 C 531.02 151.04 537.77 150.44 544.45 149.36 Z" />
<path fill="#feda14" opacity="1.00" d=" M 158.04 388.05 C 161.60 384.27 166.83 382.29 171.98 382.32 C 203.98 382.35 235.99 382.37 268.00 382.33 C 273.50 382.38 279.47 381.69 284.43 384.60 C 288.28 386.75 290.74 390.61 292.42 394.58 C 304.95 425.58 318.01 456.36 330.74 487.28 C 342.48 515.22 353.79 543.33 365.71 571.19 C 368.64 579.16 372.25 586.86 375.23 594.83 C 380.51 606.44 385.36 618.26 389.86 630.20 C 390.85 632.69 392.10 635.07 393.47 637.39 C 395.12 630.71 394.67 623.81 394.63 617.01 C 394.62 549.34 394.64 481.67 394.63 414.00 C 394.67 408.73 394.26 403.43 394.98 398.19 C 395.62 393.69 397.81 389.29 401.48 386.51 C 404.00 384.53 407.35 384.41 410.41 384.18 C 415.61 383.93 420.80 383.68 426.00 383.62 C 470.67 383.65 515.34 383.64 560.00 383.63 C 573.41 383.30 586.94 384.40 599.95 387.77 C 603.95 388.74 608.05 389.14 612.13 389.73 C 627.86 393.49 642.41 401.16 655.63 410.36 C 667.52 418.13 677.15 428.89 685.16 440.51 C 685.92 441.45 686.72 442.36 687.53 443.27 C 689.41 434.97 688.44 426.43 688.63 418.00 C 688.78 411.32 688.33 404.63 688.66 397.95 C 688.84 391.92 693.48 386.59 699.24 385.06 C 706.63 382.98 714.41 383.72 722.00 383.63 C 800.34 383.62 878.69 383.67 957.03 383.60 C 960.95 383.74 965.27 383.91 968.44 386.54 C 972.17 389.59 975.67 393.81 975.42 398.93 C 975.35 427.30 975.33 455.68 975.42 484.06 C 975.32 488.39 974.56 493.17 971.30 496.32 C 967.26 500.20 961.50 501.58 956.04 501.44 C 932.21 501.16 908.37 501.63 884.54 501.20 C 884.49 501.61 884.40 502.44 884.36 502.86 C 884.01 505.89 883.67 508.94 883.63 512.00 C 883.64 553.02 883.72 594.03 883.68 635.05 C 883.63 639.58 882.65 644.30 880.02 648.07 C 875.84 652.88 869.11 654.20 863.01 654.13 C 840.01 654.17 817.01 654.09 794.01 654.16 C 790.47 654.11 786.90 654.14 783.44 653.36 C 778.29 652.02 773.46 648.17 772.33 642.78 C 771.15 636.93 771.81 630.92 771.70 625.00 C 771.63 584.14 771.84 543.28 771.60 502.42 C 747.40 501.73 723.18 502.64 698.98 501.91 C 696.47 512.19 694.50 522.86 689.04 532.10 C 684.67 539.46 679.73 546.55 673.76 552.74 C 668.17 559.58 661.03 564.96 653.62 569.67 C 643.87 576.96 632.67 582.08 621.32 586.36 C 618.38 587.54 615.25 588.18 612.13 588.65 C 612.70 588.88 613.27 589.11 613.86 589.35 C 607.81 590.51 601.82 591.98 595.71 592.78 C 589.12 593.65 582.72 595.81 576.03 595.81 C 554.72 596.35 533.40 596.22 512.08 596.22 C 511.34 610.15 512.10 624.12 511.73 638.06 C 511.57 643.83 507.83 649.06 502.96 651.93 C 499.38 654.10 495.04 654.05 491.00 654.18 C 465.66 654.16 440.32 654.15 414.99 654.18 C 410.39 654.11 405.57 653.80 401.43 651.60 C 398.74 649.98 397.00 647.27 395.07 644.89 C 394.10 648.41 393.56 652.26 391.20 655.20 C 389.25 657.59 386.83 659.84 383.76 660.62 C 378.63 662.01 373.27 662.10 367.99 662.13 C 339.66 662.03 311.33 662.26 283.00 661.95 C 274.63 661.87 266.25 662.15 257.89 661.73 C 259.72 655.95 262.09 650.18 262.01 644.01 C 262.28 639.22 260.89 634.53 258.69 630.32 C 256.32 625.86 254.57 620.80 250.55 617.51 C 242.60 610.87 232.63 605.76 222.04 606.13 C 213.75 607.02 205.84 610.40 199.03 615.13 C 195.43 617.60 193.37 621.55 191.23 625.22 C 189.80 627.74 188.12 630.11 186.83 632.71 C 185.55 635.27 185.67 638.22 185.55 641.01 C 185.52 645.21 185.40 649.49 186.50 653.58 C 187.24 656.33 188.24 659.01 189.12 661.73 C 178.75 662.26 168.37 661.69 157.99 662.09 C 129.66 662.21 101.33 662.06 73.00 662.17 C 69.28 662.09 65.44 662.19 61.87 661.00 C 58.56 659.72 55.29 657.53 53.91 654.14 C 52.57 650.94 51.58 647.47 51.80 643.98 C 52.27 640.22 53.99 636.80 55.32 633.30 C 59.25 622.99 63.55 612.83 67.70 602.61 C 74.22 587.44 80.95 572.36 86.92 556.96 C 89.55 550.31 92.64 543.84 95.12 537.13 C 98.28 528.51 102.59 520.38 105.78 511.78 C 108.31 504.80 111.66 498.15 114.23 491.18 C 118.17 480.93 122.98 471.04 126.82 460.75 C 131.70 450.12 135.59 439.07 140.35 428.40 C 143.48 420.56 146.72 412.77 150.03 405.01 C 152.49 399.28 154.02 392.96 158.04 388.05 M 570.03 397.70 C 519.01 397.59 467.98 397.71 416.95 397.65 C 414.84 397.66 412.77 398.07 410.73 398.57 L 409.66 398.56 C 409.52 474.37 409.65 550.19 409.58 626.00 C 409.54 630.07 409.59 634.14 409.76 638.20 C 438.34 638.62 466.92 638.12 495.50 638.46 C 496.58 632.35 496.07 626.15 496.11 620.00 C 496.15 606.76 496.00 593.52 496.26 580.28 C 518.84 580.57 541.42 580.27 564.00 580.36 C 571.05 580.42 578.11 580.12 585.08 579.00 C 589.76 578.17 594.74 578.25 599.00 575.89 L 599.83 575.78 C 607.51 575.92 614.58 572.41 621.60 569.73 C 630.58 565.72 639.66 561.59 647.49 555.53 C 653.01 551.43 658.85 547.56 662.98 541.94 C 670.11 534.29 675.71 525.26 679.77 515.65 C 681.65 509.82 683.74 503.98 684.57 497.90 C 684.78 488.53 685.46 478.86 682.17 469.88 C 682.10 470.51 681.94 471.76 681.87 472.39 C 680.72 466.71 678.55 461.28 675.86 456.17 C 673.05 450.86 670.18 445.46 665.99 441.09 C 664.99 439.15 663.88 437.24 662.31 435.70 C 654.00 427.19 644.15 420.37 634.10 414.09 C 627.71 410.95 621.19 408.00 614.51 405.51 C 608.93 403.36 602.98 402.49 597.24 400.92 C 591.89 399.41 586.28 399.46 580.88 398.21 C 577.32 397.34 573.65 397.59 570.03 397.70 M 170.33 398.20 C 168.51 399.23 168.00 401.48 167.16 403.26 C 164.95 409.22 162.35 415.02 159.86 420.87 C 157.65 426.16 155.08 431.37 154.01 437.05 C 153.23 438.61 152.51 440.21 151.94 441.87 C 150.41 443.85 149.17 446.05 148.31 448.41 C 141.50 466.01 133.85 483.27 126.71 500.74 C 119.35 518.91 111.46 536.85 104.09 555.02 C 102.30 559.80 100.36 564.53 98.15 569.14 C 97.03 571.39 96.48 573.85 96.20 576.34 C 91.29 586.96 87.10 597.89 82.68 608.72 C 80.97 613.03 78.59 617.12 77.67 621.72 C 75.71 624.59 74.18 627.72 73.01 630.98 C 71.17 636.11 68.38 640.89 67.28 646.27 C 93.86 646.50 120.43 646.24 147.01 646.41 C 150.30 646.38 153.79 646.34 156.75 644.68 C 161.12 642.15 164.85 638.30 166.67 633.53 C 169.05 630.96 170.25 627.60 171.54 624.42 C 173.07 620.26 175.19 615.77 173.32 611.35 C 165.05 615.95 157.35 621.47 149.23 626.32 C 146.34 626.96 143.42 627.47 140.47 627.84 C 138.84 612.84 143.51 597.84 150.82 584.88 C 154.10 579.02 158.50 573.90 162.77 568.75 C 165.62 565.28 169.49 562.84 172.38 559.44 C 174.83 550.68 173.45 541.41 175.54 532.60 C 176.22 529.25 176.66 525.85 177.50 522.54 C 180.52 511.59 183.82 500.54 189.76 490.76 C 194.95 482.53 200.46 474.32 207.81 467.84 C 212.63 463.69 217.67 459.77 223.13 456.50 C 228.86 460.08 234.23 464.22 239.25 468.75 C 245.03 474.07 249.69 480.46 254.06 486.96 C 257.09 491.39 258.94 496.52 262.12 500.87 C 265.37 508.98 268.12 517.31 270.04 525.84 C 271.96 536.92 273.49 548.11 273.59 559.38 C 280.13 564.85 286.21 570.92 291.18 577.87 C 295.53 583.76 298.77 590.36 302.14 596.83 C 302.52 599.62 303.10 602.38 303.86 605.09 C 305.85 612.46 307.15 620.27 305.54 627.85 C 303.45 627.61 301.30 627.54 299.32 626.75 C 289.62 622.54 281.82 614.97 272.09 610.83 C 271.84 613.76 271.63 616.77 272.47 619.64 C 274.51 627.27 278.37 634.45 283.72 640.28 C 287.10 643.94 291.88 646.47 296.95 646.37 C 317.30 646.34 337.65 646.36 358.00 646.35 C 365.04 646.31 372.11 646.66 379.11 645.73 C 377.80 639.63 374.82 634.11 372.56 628.35 C 368.48 617.93 363.91 607.71 359.57 597.40 C 355.07 586.87 351.56 575.85 345.95 565.84 C 344.91 561.29 342.87 557.07 341.13 552.76 C 338.90 547.46 336.90 542.03 334.05 537.02 C 333.44 534.17 332.62 531.38 331.51 528.69 C 327.07 517.81 322.62 506.93 317.95 496.14 C 315.08 488.51 311.77 481.06 308.51 473.59 C 302.35 457.60 295.24 442.00 289.06 426.02 C 285.29 418.19 282.53 409.94 279.06 401.99 C 278.38 400.69 277.90 399.15 276.65 398.29 C 272.52 397.26 268.21 397.76 264.00 397.68 C 236.33 397.70 208.67 397.72 181.00 397.67 C 177.45 397.73 173.81 397.32 170.33 398.20 M 408.32 412.00 C 408.34 483.67 408.28 555.34 408.34 627.01 C 408.35 630.74 407.02 634.58 408.35 638.24 C 408.91 633.50 408.69 628.74 408.68 623.99 C 408.67 551.66 408.69 479.33 408.69 406.99 C 408.70 403.93 408.63 400.86 408.52 397.81 C 408.26 402.53 408.28 407.27 408.32 412.00 M 703.51 398.37 C 703.49 398.84 703.46 399.77 703.45 400.23 L 702.18 400.15 C 702.00 429.01 702.10 457.89 702.23 486.75 C 727.15 486.76 752.08 486.80 777.01 486.74 C 779.94 486.77 782.87 486.98 785.80 487.22 C 786.36 494.13 786.07 501.07 786.08 508.00 C 785.98 546.66 786.13 585.33 786.10 624.00 C 786.08 628.74 785.67 633.56 786.91 638.20 L 787.16 638.66 C 814.36 638.71 841.56 638.56 868.75 638.75 C 868.45 588.38 868.85 538.00 868.55 487.63 C 873.01 487.11 877.50 486.80 882.00 486.82 C 901.66 486.83 921.33 486.83 941.00 486.82 C 947.39 486.78 953.81 487.10 960.19 486.43 C 960.45 486.08 960.97 485.36 961.23 485.00 C 962.63 479.43 961.90 473.67 961.96 468.00 C 961.92 447.31 961.89 426.62 961.87 405.94 C 961.80 403.95 961.54 401.98 961.21 400.03 C 960.96 399.67 960.46 398.94 960.21 398.58 C 954.24 397.08 948.07 397.89 942.00 397.77 C 864.99 397.71 787.98 397.92 710.97 397.63 C 708.46 397.65 705.97 397.98 703.51 398.37 M 219.35 496.41 C 212.14 497.55 205.49 501.24 200.32 506.33 C 197.43 509.13 196.08 513.02 194.76 516.72 C 193.07 521.59 191.34 526.71 192.18 531.93 C 193.54 540.98 198.95 549.36 206.60 554.37 C 216.68 560.59 230.39 560.79 240.41 554.36 C 246.89 549.67 252.32 542.95 254.05 535.00 C 255.49 527.14 252.46 519.46 249.65 512.27 C 248.11 508.22 245.39 504.64 241.77 502.22 C 235.29 497.81 227.22 495.16 219.35 496.41 Z" />
<path fill="#feda14" opacity="1.00" d=" M 496.84 466.85 C 513.89 466.46 530.95 466.88 548.00 466.62 C 556.30 466.42 564.68 467.53 572.49 470.41 C 575.67 471.59 578.87 472.73 582.04 473.95 C 585.99 477.35 590.00 480.99 592.40 485.70 C 594.21 489.04 592.92 493.02 591.04 496.01 C 587.98 500.64 583.47 504.32 578.26 506.27 C 571.42 508.78 564.44 511.55 557.03 511.40 C 536.95 511.24 516.88 511.53 496.81 511.24 C 496.58 496.44 496.53 481.64 496.84 466.85 Z" />
<path fill="#feda14" opacity="1.00" d=" M 274.87 712.40 C 325.17 712.12 375.47 712.32 425.77 712.30 C 426.46 713.21 427.16 714.12 427.86 715.04 C 430.12 718.11 432.61 721.00 435.11 723.89 C 438.22 727.47 440.65 731.63 444.19 734.84 C 450.05 740.01 454.44 746.55 459.94 752.08 C 463.68 756.05 468.22 759.13 472.31 762.72 C 483.22 772.31 494.89 781.07 507.30 788.63 C 516.58 794.32 525.81 800.35 536.10 804.07 C 547.67 809.32 559.05 815.17 571.27 818.81 C 579.45 822.28 588.16 824.12 596.70 826.47 C 601.37 828.06 606.33 828.49 611.09 829.76 C 618.38 831.55 625.89 832.09 633.24 833.52 C 650.02 836.39 667.07 835.16 684.00 835.40 C 702.92 836.02 721.64 832.53 740.15 829.01 C 746.22 827.37 752.40 826.18 758.45 824.46 C 779.42 817.91 800.29 810.43 819.39 799.43 C 823.74 797.17 828.18 795.04 832.20 792.20 C 835.82 789.65 839.69 787.41 843.90 785.98 C 841.26 789.13 838.43 792.11 835.47 794.96 C 829.22 800.91 822.38 806.18 815.91 811.89 C 814.22 813.29 812.63 814.82 810.99 816.29 C 779.04 841.23 743.36 861.70 704.97 874.93 C 697.23 877.82 689.23 879.90 681.35 882.33 C 671.22 885.44 660.80 887.37 650.40 889.30 C 638.04 891.61 625.54 893.17 613.00 894.01 C 600.68 895.10 588.31 894.48 575.97 894.67 C 529.10 893.57 482.66 882.33 440.01 862.98 C 430.43 858.34 420.81 853.74 411.54 848.49 C 390.86 836.44 371.07 822.76 353.06 806.96 C 346.37 801.07 339.63 795.22 333.36 788.88 C 329.96 783.95 325.27 780.14 321.42 775.59 C 315.56 768.76 309.61 761.99 304.16 754.82 C 299.44 748.80 295.34 742.29 289.90 736.87 C 286.32 731.47 282.76 726.05 279.17 720.66 C 277.49 718.04 276.16 715.22 274.87 712.40 Z" />
<path fill="#feda14" opacity="1.00" d=" M 181.52 712.97 C 196.67 712.24 211.84 712.90 227.00 712.61 C 230.37 712.69 234.01 712.23 237.14 713.79 C 239.15 715.26 240.00 717.77 241.11 719.92 C 245.19 729.26 250.03 738.23 254.80 747.23 C 258.45 754.10 262.93 760.48 266.78 767.24 C 271.46 775.37 277.43 782.63 282.55 790.47 C 286.19 796.05 290.21 801.38 294.56 806.44 C 304.31 818.60 314.65 830.30 325.77 841.22 C 330.24 845.74 334.60 850.40 339.62 854.33 C 341.28 855.71 342.90 857.13 344.54 858.56 C 343.47 859.18 342.41 859.83 341.35 860.48 C 326.87 852.50 312.09 844.97 298.48 835.52 C 281.45 824.20 265.15 811.75 250.09 797.91 C 241.02 790.10 232.89 781.29 224.47 772.81 C 221.24 767.15 216.23 762.86 212.19 757.82 C 203.52 747.63 196.07 736.50 188.11 725.77 C 185.24 721.89 183.02 717.55 181.52 712.97 Z" />
</g>
<g id="#e3ddb5ff">
<path fill="#e3ddb5" opacity="1.00" d=" M 425.81 138.46 C 429.09 136.78 432.35 135.05 435.78 133.70 C 435.69 134.30 435.49 135.51 435.40 136.11 C 437.99 135.19 440.66 134.14 443.48 134.39 C 446.43 134.58 449.39 134.33 452.25 133.54 C 453.69 134.97 455.19 136.37 456.30 138.09 C 455.86 140.88 453.27 142.66 451.05 144.08 C 443.76 148.22 436.31 152.09 428.89 156.01 C 421.70 160.27 413.78 163.20 406.90 167.99 C 398.58 173.73 390.10 179.24 381.69 184.84 C 374.40 190.15 367.98 196.58 360.43 201.53 C 357.68 203.35 355.06 205.39 352.76 207.76 C 345.86 214.87 339.03 222.08 331.62 228.67 C 323.34 236.43 316.80 245.78 308.83 253.83 C 305.71 257.11 303.45 261.06 300.61 264.56 C 297.62 268.27 294.79 272.11 292.18 276.11 C 289.72 279.89 286.33 283.01 284.11 286.97 C 281.03 292.43 276.92 297.22 273.84 302.68 C 271.43 306.76 269.70 311.19 267.33 315.28 C 263.76 321.36 259.91 327.30 256.97 333.72 C 254.58 338.98 251.73 344.03 249.72 349.46 C 247.52 355.63 241.94 361.36 235.05 361.45 C 222.42 362.98 209.69 362.12 197.00 362.34 C 188.31 362.10 179.49 363.08 170.90 361.36 C 167.65 360.78 164.28 358.98 163.09 355.72 C 162.02 352.89 162.93 349.88 163.51 347.06 C 162.43 347.05 161.34 347.04 160.26 347.03 C 160.11 346.38 159.80 345.06 159.65 344.40 L 160.36 344.62 C 162.26 345.20 164.17 345.73 166.12 346.08 C 166.26 349.15 166.20 352.26 166.87 355.27 C 167.10 357.09 168.96 357.87 170.48 358.38 C 174.84 359.74 179.46 359.68 183.98 359.72 C 193.66 359.63 203.33 359.64 213.00 359.68 C 220.97 359.80 228.96 359.60 236.87 358.57 C 242.81 358.04 245.94 352.15 248.20 347.35 C 251.38 339.45 255.26 331.86 259.38 324.41 C 265.11 314.48 270.20 304.16 276.61 294.63 C 285.44 282.17 293.31 268.97 303.35 257.40 C 306.35 254.03 309.06 250.43 311.89 246.91 C 315.00 243.03 318.80 239.81 322.30 236.29 C 326.30 232.28 329.64 227.67 333.64 223.65 C 336.79 220.47 339.99 217.33 343.14 214.14 C 348.98 208.23 355.83 203.47 362.05 197.98 C 370.06 190.89 378.48 184.25 387.43 178.39 C 396.88 172.51 405.91 165.95 415.63 160.51 C 424.30 154.84 434.35 151.70 442.80 145.69 C 445.77 143.60 448.10 140.78 450.40 138.00 C 445.89 137.20 441.25 137.02 436.75 138.00 C 433.15 138.76 429.46 138.76 425.81 138.46 Z" />
<path fill="#e3ddb5" opacity="1.00" d=" M 707.86 167.97 C 711.39 168.22 714.64 169.66 717.89 170.93 C 724.68 173.25 731.18 176.33 737.70 179.32 C 743.78 182.65 750.30 185.12 756.26 188.71 C 758.78 190.20 761.42 191.49 764.08 192.75 C 768.53 194.81 772.27 198.06 776.53 200.45 C 788.29 206.97 798.88 215.34 809.84 223.07 C 815.94 226.47 821.20 231.06 826.80 235.18 C 829.02 236.72 830.59 238.95 832.49 240.84 C 834.97 242.66 838.22 243.30 840.39 245.60 C 843.34 248.66 845.95 252.07 849.25 254.79 C 852.09 257.05 853.20 260.69 855.86 263.11 C 859.48 266.25 861.35 270.89 865.14 273.86 C 869.72 277.42 872.20 282.78 875.86 287.14 C 877.49 289.06 878.72 291.44 878.61 294.03 C 878.62 297.01 875.25 299.48 872.41 298.54 C 867.72 297.09 864.02 293.70 860.15 290.84 C 851.32 284.57 842.15 278.80 832.99 273.05 C 828.85 270.76 824.31 269.25 820.35 266.64 C 810.35 260.22 798.80 257.00 788.22 251.78 C 785.78 250.69 783.21 249.97 780.66 249.23 C 775.83 247.88 771.22 245.86 766.34 244.69 C 758.57 242.84 751.03 240.11 743.12 238.84 C 730.29 235.78 717.20 233.75 704.03 233.03 C 697.01 232.69 690.03 231.77 683.00 231.96 C 660.90 231.55 638.85 234.23 617.14 238.24 C 601.88 241.55 587.02 246.45 572.15 251.20 C 566.66 253.13 561.65 256.21 556.15 258.16 C 551.22 259.93 546.78 262.74 542.09 265.01 C 534.72 267.91 528.21 272.46 521.38 276.38 C 515.25 281.06 507.88 283.91 502.17 289.16 C 498.98 292.04 495.43 294.47 491.94 296.97 C 487.70 299.98 484.11 303.78 480.03 306.98 C 470.77 313.98 462.96 322.61 454.92 330.92 C 450.83 334.87 447.27 339.32 443.82 343.83 C 440.51 348.18 437.66 352.90 433.83 356.83 C 432.00 358.70 430.02 360.65 427.43 361.37 C 421.11 363.22 414.48 362.36 408.01 362.31 C 369.34 362.36 330.67 362.29 292.00 362.34 C 285.09 362.36 277.71 362.94 271.38 359.66 C 268.18 356.06 268.84 350.97 269.98 346.70 C 270.75 346.70 272.29 346.71 273.05 346.71 C 273.08 350.49 272.32 355.68 276.45 357.67 C 281.73 359.49 287.46 358.67 292.94 359.03 C 328.96 359.16 364.98 359.03 401.00 359.10 C 407.39 359.11 413.80 359.21 420.16 358.47 C 423.35 358.08 426.70 357.38 429.18 355.19 C 432.62 352.25 435.11 348.41 437.89 344.87 C 445.68 334.45 454.95 325.27 464.01 315.98 C 469.82 309.77 476.48 304.46 482.76 298.74 C 487.83 294.06 493.70 290.40 499.08 286.11 C 506.10 280.60 514.07 276.49 521.38 271.39 C 526.61 267.67 532.60 265.29 538.23 262.27 C 544.64 258.89 551.05 255.45 557.87 252.93 C 564.13 250.63 570.15 247.68 576.52 245.65 C 581.57 244.03 586.62 242.41 591.64 240.69 C 600.79 237.57 610.34 235.95 619.74 233.77 C 628.57 231.73 637.62 230.98 646.58 229.68 C 657.97 227.94 669.53 228.27 681.01 228.26 C 686.64 228.30 692.28 228.15 697.91 228.45 C 719.53 230.02 741.09 233.27 761.99 239.09 C 769.55 241.55 777.32 243.38 784.70 246.37 C 791.58 249.15 798.71 251.29 805.38 254.60 C 812.89 257.90 820.11 261.82 827.31 265.76 C 837.85 271.22 847.72 277.85 857.63 284.36 C 861.25 286.56 865.84 289.17 869.96 286.59 C 868.03 282.52 865.94 278.46 862.83 275.16 C 853.25 265.12 844.51 254.19 833.74 245.37 C 828.70 242.13 824.46 237.91 820.06 233.90 C 805.52 222.27 790.70 210.93 774.87 201.08 C 767.09 195.97 758.75 191.81 750.61 187.31 C 743.35 183.33 735.69 180.16 728.18 176.71 C 721.49 173.59 714.48 171.24 707.86 167.97 Z" />
<path fill="#e3ddb5" opacity="1.00" d=" M 397.67 387.61 C 400.93 384.82 404.88 382.70 409.17 382.08 C 414.08 381.36 419.06 381.69 424.00 381.67 C 468.34 381.67 512.67 381.67 557.01 381.67 C 563.50 381.69 570.05 381.40 576.49 382.45 C 588.45 384.36 600.75 385.35 612.13 389.73 C 608.05 389.14 603.95 388.74 599.95 387.77 C 586.94 384.40 573.41 383.30 560.00 383.63 C 515.34 383.64 470.67 383.65 426.00 383.62 C 420.80 383.68 415.61 383.93 410.41 384.18 C 407.35 384.41 404.00 384.53 401.48 386.51 C 397.81 389.29 395.62 393.69 394.98 398.19 C 394.26 403.43 394.67 408.73 394.63 414.00 C 394.64 481.67 394.62 549.34 394.63 617.01 C 394.67 623.81 395.12 630.71 393.47 637.39 C 392.10 635.07 390.85 632.69 389.86 630.20 C 390.78 630.81 391.71 631.44 392.65 632.07 C 392.69 556.03 392.70 480.00 392.65 403.97 C 392.72 399.66 393.65 395.39 395.18 391.37 C 395.69 389.94 396.47 388.57 397.67 387.61 Z" />
<path fill="#e3ddb5" opacity="1.00" d=" M 695.62 384.57 C 702.11 380.86 709.83 381.70 717.00 381.67 C 796.69 381.66 876.38 381.70 956.06 381.65 C 960.75 381.82 965.47 383.03 969.53 385.41 C 974.76 389.13 977.45 395.63 977.33 401.96 C 977.37 428.31 977.26 454.66 977.38 481.01 C 977.39 486.54 976.26 492.37 972.80 496.82 C 968.62 501.46 962.09 503.23 956.01 503.08 C 932.13 502.91 908.24 503.26 884.36 502.86 C 884.40 502.44 884.49 501.61 884.54 501.20 C 908.37 501.63 932.21 501.16 956.04 501.44 C 961.50 501.58 967.26 500.20 971.30 496.32 C 974.56 493.17 975.32 488.39 975.42 484.06 C 975.33 455.68 975.35 427.30 975.42 398.93 C 975.67 393.81 972.17 389.59 968.44 386.54 C 965.27 383.91 960.95 383.74 957.03 383.60 C 878.69 383.67 800.34 383.62 722.00 383.63 C 714.41 383.72 706.63 382.98 699.24 385.06 C 693.48 386.59 688.84 391.92 688.66 397.95 C 688.33 404.63 688.78 411.32 688.63 418.00 C 688.44 426.43 689.41 434.97 687.53 443.27 C 686.72 442.36 685.92 441.45 685.16 440.51 C 686.01 439.50 686.84 438.40 686.69 436.99 C 686.81 425.32 686.56 413.63 686.67 401.96 C 686.81 395.30 689.43 387.88 695.62 384.57 Z" />
<path fill="#e3ddb5" opacity="1.00" d=" M 961.21 400.03 C 961.54 401.98 961.80 403.95 961.87 405.94 C 961.89 426.62 961.92 447.31 961.96 468.00 C 961.90 473.67 962.63 479.43 961.23 485.00 C 960.56 473.01 961.04 461.00 960.88 449.00 C 960.93 432.68 960.59 416.34 961.21 400.03 Z" />
<path fill="#e3ddb5" opacity="1.00" d=" M 179.62 711.95 C 186.74 711.52 193.87 712.14 201.00 712.08 C 210.67 712.03 220.34 712.12 230.01 711.86 C 232.59 711.84 235.21 711.68 237.77 712.15 C 239.37 712.78 240.57 714.10 241.98 715.07 C 244.40 716.97 247.53 717.98 249.50 720.45 C 253.54 725.17 255.49 731.16 258.36 736.58 C 262.05 744.08 267.01 750.90 270.29 758.62 C 272.53 764.05 276.91 768.17 279.51 773.40 C 281.26 776.86 283.45 780.06 285.88 783.09 C 288.90 786.86 290.75 791.42 293.84 795.15 C 298.18 800.47 302.67 805.68 306.70 811.26 C 309.05 814.51 311.93 817.35 314.14 820.71 C 315.62 822.93 316.95 825.27 318.72 827.28 C 321.96 831.03 326.37 833.57 329.46 837.47 C 332.21 841.03 335.92 843.70 338.58 847.33 C 340.25 849.72 342.89 851.06 345.00 852.99 C 347.09 855.27 348.47 858.25 351.24 859.87 C 355.60 862.67 359.25 866.51 362.04 870.87 C 363.01 872.13 362.42 873.73 362.05 875.11 C 361.42 876.84 360.68 879.15 358.55 879.46 C 354.67 880.24 350.67 879.26 347.09 877.75 C 342.12 875.58 337.24 873.19 332.63 870.33 C 328.83 867.96 324.64 866.35 320.80 864.06 C 312.88 858.98 304.42 854.74 296.88 849.06 C 280.74 838.14 265.58 825.85 251.02 812.92 C 247.06 809.92 243.46 806.52 240.09 802.89 C 233.60 797.02 228.14 790.16 222.32 783.66 C 219.79 780.89 216.87 778.47 214.54 775.51 C 212.44 772.87 210.85 769.88 208.73 767.27 C 199.75 757.10 191.48 746.27 184.29 734.76 C 181.86 730.80 181.14 726.03 181.69 721.46 C 182.17 718.12 180.68 715.01 179.62 711.95 M 181.52 712.97 C 183.02 717.55 185.24 721.89 188.11 725.77 C 188.25 727.74 188.16 729.89 189.42 731.57 C 193.54 737.73 197.30 744.17 202.13 749.84 C 206.50 754.91 209.44 761.03 213.92 766.02 C 217.57 770.34 221.86 774.09 225.33 778.57 C 229.68 784.19 234.74 789.20 239.35 794.60 C 241.93 797.73 245.59 799.68 248.40 802.58 C 250.24 804.43 252.11 806.23 254.07 807.97 C 257.45 810.93 260.10 814.65 263.71 817.37 C 267.46 820.27 271.39 822.94 275.00 826.02 C 278.78 829.28 283.17 831.76 286.84 835.17 C 294.05 841.95 303.12 846.19 311.05 851.99 C 318.70 857.89 327.81 861.33 336.27 865.85 C 340.33 867.81 344.32 870.68 349.07 870.24 C 348.85 868.09 348.02 866.12 347.38 864.10 C 348.07 863.96 349.44 863.69 350.12 863.56 C 348.55 861.69 346.89 859.91 345.17 858.19 L 344.54 858.56 C 342.90 857.13 341.28 855.71 339.62 854.33 C 337.97 851.72 336.00 849.34 333.70 847.30 C 326.18 840.48 319.80 832.55 312.60 825.41 C 308.70 821.53 306.07 816.62 302.44 812.52 C 300.11 809.86 297.53 807.39 295.54 804.45 C 288.74 793.50 279.42 784.29 273.19 772.95 C 270.00 766.92 265.50 761.66 262.87 755.32 C 260.86 750.24 257.08 746.13 255.00 741.10 C 252.64 735.68 249.78 730.49 246.56 725.54 C 245.16 723.30 243.21 721.49 241.11 719.92 C 240.00 717.77 239.15 715.26 237.14 713.79 C 234.01 712.23 230.37 712.69 227.00 712.61 C 211.84 712.90 196.67 712.24 181.52 712.97 Z" />
<path fill="#e3ddb5" opacity="1.00" d=" M 427.86 715.04 C 429.72 715.35 431.77 715.47 433.19 716.88 C 438.73 721.60 443.98 726.75 448.15 732.75 C 450.39 736.12 453.87 738.39 456.24 741.66 C 458.59 744.98 462.22 747.11 464.47 750.53 C 466.52 753.54 470.26 754.64 472.64 757.34 C 478.20 763.78 484.91 769.09 491.22 774.77 C 495.24 778.49 499.94 781.35 504.32 784.61 C 510.55 789.24 517.40 792.94 524.15 796.76 C 528.18 799.11 532.87 800.53 536.10 804.07 C 525.81 800.35 516.58 794.32 507.30 788.63 C 494.89 781.07 483.22 772.31 472.31 762.72 C 468.22 759.13 463.68 756.05 459.94 752.08 C 454.44 746.55 450.05 740.01 444.19 734.84 C 440.65 731.63 438.22 727.47 435.11 723.89 C 432.61 721.00 430.12 718.11 427.86 715.04 Z" />
<path fill="#e3ddb5" opacity="1.00" d=" M 279.17 720.66 C 282.76 726.05 286.32 731.47 289.90 736.87 C 290.90 739.54 291.72 742.35 293.41 744.70 C 297.28 750.08 301.01 755.57 305.39 760.56 C 313.34 770.31 320.27 780.90 328.85 790.14 C 338.64 801.36 349.64 811.63 361.97 820.01 C 363.25 821.06 364.52 822.11 365.80 823.17 C 367.31 824.99 368.71 826.92 370.44 828.54 C 379.75 836.92 390.96 842.69 400.91 850.21 C 404.97 853.28 409.41 855.80 413.94 858.13 C 421.52 862.24 429.06 866.42 436.71 870.41 C 446.54 875.12 456.78 878.92 466.73 883.36 C 477.41 888.00 488.69 890.94 499.81 894.31 C 508.30 897.09 517.11 898.67 525.86 900.43 C 541.38 903.60 557.16 905.37 572.97 906.29 C 579.64 906.51 586.32 906.27 593.00 906.34 C 601.24 906.24 609.49 906.72 617.71 905.92 C 624.75 905.25 631.86 905.29 638.84 904.01 C 646.82 902.54 654.92 901.74 662.87 900.09 C 681.35 895.98 699.63 890.96 717.46 884.57 C 722.24 882.74 726.94 880.71 731.75 878.97 C 739.80 876.06 747.27 871.83 754.96 868.11 C 764.05 863.77 772.66 858.52 781.34 853.42 C 793.08 846.43 804.08 838.27 814.86 829.89 C 822.88 823.29 831.77 817.50 838.16 809.16 C 839.54 807.23 839.93 804.83 840.56 802.60 C 836.85 802.99 833.19 803.90 829.95 805.77 C 825.48 808.28 820.71 810.13 815.91 811.89 C 822.38 806.18 829.22 800.91 835.47 794.96 C 840.27 795.83 844.53 792.57 849.24 792.64 C 852.58 793.09 852.91 797.19 852.07 799.79 C 850.15 802.86 847.34 805.23 845.10 808.06 C 842.17 811.79 838.26 814.54 834.99 817.94 C 831.20 821.86 826.88 825.20 822.91 828.94 C 818.22 833.48 811.79 835.60 807.07 840.10 C 803.43 843.64 798.92 845.97 794.74 848.75 C 782.58 857.74 769.07 864.62 755.88 871.93 C 733.83 882.15 711.47 892.13 687.80 897.99 C 673.76 902.09 659.35 904.76 644.93 907.08 C 639.33 908.08 633.70 908.91 628.02 909.16 C 620.67 909.44 613.36 910.52 606.00 910.35 C 595.32 910.23 584.64 910.52 573.97 910.22 C 563.33 909.25 552.61 908.94 542.07 907.10 C 524.45 904.16 506.69 901.26 489.78 895.33 C 481.32 892.36 472.56 890.25 464.31 886.68 C 457.56 883.68 450.29 881.84 443.87 878.12 C 438.51 874.99 432.55 873.10 427.26 869.84 C 417.11 864.89 407.93 858.23 397.86 853.12 C 390.64 849.28 384.86 843.37 377.96 839.06 C 371.70 835.14 366.32 830.06 360.55 825.49 C 358.33 823.71 356.18 821.84 354.18 819.83 C 349.46 814.84 343.60 811.09 339.16 805.83 C 333.11 799.86 327.38 793.60 321.32 787.65 C 319.15 785.39 317.73 782.58 315.97 780.02 C 313.41 776.29 310.55 772.78 307.68 769.30 C 303.55 764.33 300.20 758.78 296.25 753.68 C 290.25 746.08 284.56 738.08 280.71 729.15 C 279.47 726.49 279.13 723.55 279.17 720.66 Z" />
</g>
<g id="#a4a978ff">
<path fill="#a4a978" opacity="1.00" d=" M 436.75 138.00 C 441.25 137.02 445.89 137.20 450.40 138.00 C 448.10 140.78 445.77 143.60 442.80 145.69 C 434.35 151.70 424.30 154.84 415.63 160.51 C 405.91 165.95 396.88 172.51 387.43 178.39 C 378.48 184.25 370.06 190.89 362.05 197.98 C 355.83 203.47 348.98 208.23 343.14 214.14 C 339.99 217.33 336.79 220.47 333.64 223.65 C 329.64 227.67 326.30 232.28 322.30 236.29 C 318.80 239.81 315.00 243.03 311.89 246.91 C 309.06 250.43 306.35 254.03 303.35 257.40 C 293.31 268.97 285.44 282.17 276.61 294.63 C 270.20 304.16 265.11 314.48 259.38 324.41 C 255.26 331.86 251.38 339.45 248.20 347.35 C 245.94 352.15 242.81 358.04 236.87 358.57 C 228.96 359.60 220.97 359.80 213.00 359.68 C 203.33 359.64 193.66 359.63 183.98 359.72 C 179.46 359.68 174.84 359.74 170.48 358.38 C 168.96 357.87 167.10 357.09 166.87 355.27 C 166.20 352.26 166.26 349.15 166.12 346.08 C 189.13 346.23 212.14 345.87 235.13 346.28 C 231.09 346.61 227.04 346.76 222.99 346.71 C 210.00 346.58 197.00 346.76 184.01 346.61 C 179.31 346.53 174.63 346.95 169.99 347.67 C 170.53 349.52 170.85 351.51 171.91 353.16 C 173.33 355.11 175.91 355.34 178.13 355.33 C 195.43 354.91 212.74 355.24 230.04 355.13 C 232.76 355.03 235.55 354.98 238.16 354.10 C 240.48 353.23 241.66 350.85 242.88 348.87 C 247.62 340.10 251.10 330.71 256.09 322.08 C 258.90 317.22 261.81 312.42 264.37 307.42 C 268.67 298.99 274.36 291.39 279.31 283.36 C 281.94 279.06 284.74 274.84 288.00 270.99 C 292.31 265.92 295.91 260.29 300.15 255.16 C 313.15 239.57 326.47 224.19 341.37 210.38 C 350.17 202.84 358.40 194.58 367.94 187.94 C 374.25 183.24 380.44 178.36 387.02 174.03 C 397.42 166.46 408.62 160.10 419.82 153.82 C 422.12 152.50 424.48 151.24 426.55 149.57 C 428.29 148.31 428.62 146.04 429.36 144.17 C 423.79 145.08 418.21 146.85 412.51 145.90 C 416.66 142.95 421.05 140.31 425.81 138.46 C 429.46 138.76 433.15 138.76 436.75 138.00 Z" />
<path fill="#a4a978" opacity="1.00" d=" M 634.68 228.54 C 650.34 226.55 666.14 224.38 681.96 225.63 C 692.26 225.56 702.58 225.55 712.81 226.98 C 732.73 228.23 751.82 234.35 771.15 238.80 C 783.85 242.35 795.76 248.15 808.00 252.96 C 813.03 255.01 817.61 257.99 822.52 260.32 C 828.25 263.03 833.48 266.65 839.09 269.61 C 844.33 272.39 849.41 275.47 854.27 278.88 C 855.56 278.25 856.86 277.61 858.17 276.98 C 862.29 279.93 866.23 283.14 869.96 286.59 C 865.84 289.17 861.25 286.56 857.63 284.36 C 847.72 277.85 837.85 271.22 827.31 265.76 C 820.11 261.82 812.89 257.90 805.38 254.60 C 798.71 251.29 791.58 249.15 784.70 246.37 C 777.32 243.38 769.55 241.55 761.99 239.09 C 741.09 233.27 719.53 230.02 697.91 228.45 C 692.28 228.15 686.64 228.30 681.01 228.26 C 669.53 228.27 657.97 227.94 646.58 229.68 C 637.62 230.98 628.57 231.73 619.74 233.77 C 610.34 235.95 600.79 237.57 591.64 240.69 C 586.62 242.41 581.57 244.03 576.52 245.65 C 570.15 247.68 564.13 250.63 557.87 252.93 C 551.05 255.45 544.64 258.89 538.23 262.27 C 532.60 265.29 526.61 267.67 521.38 271.39 C 514.07 276.49 506.10 280.60 499.08 286.11 C 493.70 290.40 487.83 294.06 482.76 298.74 C 476.48 304.46 469.82 309.77 464.01 315.98 C 454.95 325.27 445.68 334.45 437.89 344.87 C 435.11 348.41 432.62 352.25 429.18 355.19 C 426.70 357.38 423.35 358.08 420.16 358.47 C 413.80 359.21 407.39 359.11 401.00 359.10 C 364.98 359.03 328.96 359.16 292.94 359.03 C 287.46 358.67 281.73 359.49 276.45 357.67 C 272.32 355.68 273.08 350.49 273.05 346.71 C 274.31 346.70 275.57 346.70 276.83 346.70 C 276.66 348.87 276.24 351.09 276.71 353.24 C 277.14 354.84 278.92 355.23 280.32 355.53 C 286.50 356.61 292.78 355.67 299.01 355.73 C 338.70 355.79 378.39 355.69 418.08 355.79 C 420.79 355.69 423.81 355.77 426.07 354.01 C 431.77 349.69 435.56 343.51 440.02 338.04 C 449.95 326.34 460.42 315.08 471.83 304.81 C 477.99 299.61 484.37 294.68 490.53 289.47 C 495.97 284.77 502.43 281.47 508.08 277.03 C 513.63 272.70 519.90 269.46 525.91 265.85 C 535.64 259.79 546.31 255.49 556.65 250.63 C 566.05 246.23 575.90 242.88 585.74 239.62 C 590.37 238.17 595.13 237.20 599.73 235.67 C 605.57 233.70 611.71 232.94 617.66 231.43 C 623.25 230.03 628.99 229.38 634.68 228.54 Z" />
<path fill="#a4a978" opacity="1.00" d=" M 570.03 397.70 C 573.65 397.59 577.32 397.34 580.88 398.21 C 586.28 399.46 591.89 399.41 597.24 400.92 C 602.98 402.49 608.93 403.36 614.51 405.51 C 621.19 408.00 627.71 410.95 634.10 414.09 C 644.15 420.37 654.00 427.19 662.31 435.70 C 663.88 437.24 664.99 439.15 665.99 441.09 C 659.38 434.63 652.87 427.96 645.08 422.89 C 638.33 418.50 631.51 414.08 624.03 411.02 C 602.65 400.77 578.45 398.17 555.00 398.67 C 506.91 398.61 458.82 398.79 410.73 398.57 C 412.77 398.07 414.84 397.66 416.95 397.65 C 467.98 397.71 519.01 397.59 570.03 397.70 Z" />
<path fill="#a4a978" opacity="1.00" d=" M 170.33 398.20 C 173.81 397.32 177.45 397.73 181.00 397.67 C 208.67 397.72 236.33 397.70 264.00 397.68 C 268.21 397.76 272.52 397.26 276.65 398.29 C 277.90 399.15 278.38 400.69 279.06 401.99 C 282.53 409.94 285.29 418.19 289.06 426.02 C 295.24 442.00 302.35 457.60 308.51 473.59 C 311.77 481.06 315.08 488.51 317.95 496.14 C 322.62 506.93 327.07 517.81 331.51 528.69 C 332.62 531.38 333.44 534.17 334.05 537.02 C 332.44 534.23 330.95 531.36 329.83 528.34 C 325.67 517.03 320.59 506.10 316.21 494.89 C 312.68 485.62 308.30 476.71 304.67 467.48 C 296.63 446.78 287.47 426.54 279.32 405.88 C 278.26 403.60 277.58 400.92 275.61 399.25 C 273.81 398.69 271.91 398.65 270.06 398.59 C 241.37 398.73 212.68 398.67 184.00 398.64 C 179.57 398.80 174.87 397.90 170.65 399.57 C 167.60 403.67 166.44 408.80 164.35 413.41 C 160.88 421.28 157.97 429.40 154.01 437.05 C 155.08 431.37 157.65 426.16 159.86 420.87 C 162.35 415.02 164.95 409.22 167.16 403.26 C 168.00 401.48 168.51 399.23 170.33 398.20 Z" />
<path fill="#a4a978" opacity="1.00" d=" M 408.32 412.00 C 408.28 407.27 408.26 402.53 408.52 397.81 C 408.63 400.86 408.70 403.93 408.69 406.99 C 408.69 479.33 408.67 551.66 408.68 623.99 C 408.69 628.74 408.91 633.50 408.35 638.24 C 407.02 634.58 408.35 630.74 408.34 627.01 C 408.28 555.34 408.34 483.67 408.32 412.00 Z" />
<path fill="#a4a978" opacity="1.00" d=" M 703.51 398.37 C 705.97 397.98 708.46 397.65 710.97 397.63 C 787.98 397.92 864.99 397.71 942.00 397.77 C 948.07 397.89 954.24 397.08 960.21 398.58 L 959.24 398.56 C 949.49 398.74 939.74 398.66 930.00 398.67 C 860.33 398.68 790.67 398.66 721.00 398.67 C 715.17 398.72 709.33 398.76 703.51 398.37 Z" />
<path fill="#a4a978" opacity="1.00" d=" M 702.18 400.15 L 703.45 400.23 C 703.10 428.83 703.60 457.43 703.20 486.02 C 709.46 486.35 715.73 486.39 722.00 486.33 C 743.62 486.31 765.24 486.33 786.87 486.32 C 787.47 492.86 787.42 499.44 787.34 506.00 C 787.34 543.67 787.34 581.33 787.34 619.00 C 787.36 625.40 787.52 631.82 786.91 638.20 C 785.67 633.56 786.08 628.74 786.10 624.00 C 786.13 585.33 785.98 546.66 786.08 508.00 C 786.07 501.07 786.36 494.13 785.80 487.22 C 782.87 486.98 779.94 486.77 777.01 486.74 C 752.08 486.80 727.15 486.76 702.23 486.75 C 702.10 457.89 702.00 429.01 702.18 400.15 Z" />
<path fill="#a4a978" opacity="1.00" d=" M 148.31 448.41 C 149.17 446.05 150.41 443.85 151.94 441.87 C 149.50 449.82 145.83 457.31 142.95 465.10 C 138.45 475.34 134.59 485.85 129.95 496.03 C 121.89 515.02 114.41 534.25 106.12 553.14 C 102.89 560.90 100.13 568.88 96.20 576.34 C 96.48 573.85 97.03 571.39 98.15 569.14 C 100.36 564.53 102.30 559.80 104.09 555.02 C 111.46 536.85 119.35 518.91 126.71 500.74 C 133.85 483.27 141.50 466.01 148.31 448.41 Z" />
<path fill="#a4a978" opacity="1.00" d=" M 204.33 469.33 C 209.74 463.64 216.28 459.18 223.10 455.36 C 238.14 463.59 250.22 476.65 258.33 491.66 C 259.91 494.59 261.02 497.73 262.12 500.87 C 258.94 496.52 257.09 491.39 254.06 486.96 C 249.69 480.46 245.03 474.07 239.25 468.75 C 234.23 464.22 228.86 460.08 223.13 456.50 C 217.67 459.77 212.63 463.69 207.81 467.84 C 200.46 474.32 194.95 482.53 189.76 490.76 C 183.82 500.54 180.52 511.59 177.50 522.54 C 176.66 525.85 176.22 529.25 175.54 532.60 C 173.45 541.41 174.83 550.68 172.38 559.44 C 169.49 562.84 165.62 565.28 162.77 568.75 C 158.50 573.90 154.10 579.02 150.82 584.88 C 143.51 597.84 138.84 612.84 140.47 627.84 C 143.42 627.47 146.34 626.96 149.23 626.32 C 146.36 628.36 142.82 628.75 139.40 628.85 C 138.20 616.17 140.62 603.30 145.82 591.72 C 148.23 586.64 151.14 581.82 154.13 577.08 C 157.94 571.08 163.30 566.33 168.54 561.62 C 169.89 560.24 171.64 558.92 171.90 556.88 C 172.49 553.04 172.28 549.14 172.63 545.29 C 174.44 525.30 179.49 505.24 189.96 487.94 C 193.69 480.98 198.99 475.07 204.33 469.33 Z" />
<path fill="#a4a978" opacity="1.00" d=" M 496.07 466.12 C 513.05 466.17 530.02 466.11 547.00 466.16 C 553.32 466.18 559.67 466.23 565.95 467.09 C 571.56 468.56 577.73 469.76 582.04 473.95 C 578.87 472.73 575.67 471.59 572.49 470.41 C 564.68 467.53 556.30 466.42 548.00 466.62 C 530.95 466.88 513.89 466.46 496.84 466.85 C 496.53 481.64 496.58 496.44 496.81 511.24 C 516.88 511.53 536.95 511.24 557.03 511.40 C 564.44 511.55 571.42 508.78 578.26 506.27 C 583.47 504.32 587.98 500.64 591.04 496.01 C 592.92 493.02 594.21 489.04 592.40 485.70 C 590.00 480.99 585.99 477.35 582.04 473.95 C 588.00 476.30 593.36 481.43 594.18 488.03 C 594.79 492.66 592.46 497.08 589.26 500.26 C 584.00 506.11 576.31 508.78 569.00 511.03 C 560.76 512.55 552.37 513.12 544.00 513.11 C 528.03 513.08 512.05 513.67 496.08 513.08 C 495.87 497.43 495.86 481.77 496.07 466.12 Z" />
<path fill="#a4a978" opacity="1.00" d=" M 681.87 472.39 C 681.94 471.76 682.10 470.51 682.17 469.88 C 685.46 478.86 684.78 488.53 684.57 497.90 C 683.74 503.98 681.65 509.82 679.77 515.65 C 675.71 525.26 670.11 534.29 662.98 541.94 C 658.85 547.56 653.01 551.43 647.49 555.53 C 639.66 561.59 630.58 565.72 621.60 569.73 C 614.58 572.41 607.51 575.92 599.83 575.78 C 619.15 570.59 637.84 562.13 653.40 549.42 C 661.70 542.26 669.10 533.85 674.22 524.10 C 679.89 514.03 682.94 502.57 683.42 491.04 C 683.72 484.78 682.50 478.60 681.87 472.39 Z" />
<path fill="#a4a978" opacity="1.00" d=" M 867.92 486.22 C 898.36 486.53 928.80 486.09 959.24 486.46 L 960.19 486.43 C 953.81 487.10 947.39 486.78 941.00 486.82 C 921.33 486.83 901.66 486.83 882.00 486.82 C 877.50 486.80 873.01 487.11 868.55 487.63 C 868.85 538.00 868.45 588.38 868.75 638.75 C 841.56 638.56 814.36 638.71 787.16 638.66 L 786.91 638.20 C 813.87 637.77 840.84 638.31 867.80 637.87 C 867.56 629.58 867.68 621.29 867.66 613.00 C 867.64 574.00 867.68 535.00 867.65 496.00 C 867.66 492.74 867.78 489.48 867.92 486.22 Z" />
<path fill="#a4a978" opacity="1.00" d=" M 241.11 719.92 C 243.21 721.49 245.16 723.30 246.56 725.54 C 249.78 730.49 252.64 735.68 255.00 741.10 C 257.08 746.13 260.86 750.24 262.87 755.32 C 265.50 761.66 270.00 766.92 273.19 772.95 C 279.42 784.29 288.74 793.50 295.54 804.45 C 297.53 807.39 300.11 809.86 302.44 812.52 C 306.07 816.62 308.70 821.53 312.60 825.41 C 319.80 832.55 326.18 840.48 333.70 847.30 C 336.00 849.34 337.97 851.72 339.62 854.33 C 334.60 850.40 330.24 845.74 325.77 841.22 C 314.65 830.30 304.31 818.60 294.56 806.44 C 290.21 801.38 286.19 796.05 282.55 790.47 C 277.43 782.63 271.46 775.37 266.78 767.24 C 262.93 760.48 258.45 754.10 254.80 747.23 C 250.03 738.23 245.19 729.26 241.11 719.92 Z" />
<path fill="#a4a978" opacity="1.00" d=" M 188.11 725.77 C 196.07 736.50 203.52 747.63 212.19 757.82 C 216.23 762.86 221.24 767.15 224.47 772.81 C 225.22 774.82 225.86 776.97 227.46 778.52 C 236.81 787.84 245.81 797.56 255.98 806.02 C 264.73 813.24 272.57 821.54 281.81 828.16 C 287.23 832.09 292.29 836.54 298.09 839.93 C 305.53 844.27 312.05 850.05 319.82 853.86 C 325.39 857.02 331.40 859.48 336.49 863.45 C 338.11 862.47 339.71 861.45 341.35 860.48 C 342.41 859.83 343.47 859.18 344.54 858.56 L 345.17 858.19 C 346.89 859.91 348.55 861.69 350.12 863.56 C 349.44 863.69 348.07 863.96 347.38 864.10 C 348.02 866.12 348.85 868.09 349.07 870.24 C 344.32 870.68 340.33 867.81 336.27 865.85 C 327.81 861.33 318.70 857.89 311.05 851.99 C 303.12 846.19 294.05 841.95 286.84 835.17 C 283.17 831.76 278.78 829.28 275.00 826.02 C 271.39 822.94 267.46 820.27 263.71 817.37 C 260.10 814.65 257.45 810.93 254.07 807.97 C 252.11 806.23 250.24 804.43 248.40 802.58 C 245.59 799.68 241.93 797.73 239.35 794.60 C 234.74 789.20 229.68 784.19 225.33 778.57 C 221.86 774.09 217.57 770.34 213.92 766.02 C 209.44 761.03 206.50 754.91 202.13 749.84 C 197.30 744.17 193.54 737.73 189.42 731.57 C 188.16 729.89 188.25 727.74 188.11 725.77 Z" />
<path fill="#a4a978" opacity="1.00" d=" M 289.90 736.87 C 295.34 742.29 299.44 748.80 304.16 754.82 C 309.61 761.99 315.56 768.76 321.42 775.59 C 325.27 780.14 329.96 783.95 333.36 788.88 C 334.28 794.09 338.77 797.23 342.34 800.66 C 346.91 804.75 351.03 809.30 355.65 813.34 C 357.97 815.35 359.96 817.69 361.97 820.01 C 349.64 811.63 338.64 801.36 328.85 790.14 C 320.27 780.90 313.34 770.31 305.39 760.56 C 301.01 755.57 297.28 750.08 293.41 744.70 C 291.72 742.35 290.90 739.54 289.90 736.87 Z" />
<path fill="#a4a978" opacity="1.00" d=" M 829.95 805.77 C 833.19 803.90 836.85 802.99 840.56 802.60 C 839.93 804.83 839.54 807.23 838.16 809.16 C 831.77 817.50 822.88 823.29 814.86 829.89 C 804.08 838.27 793.08 846.43 781.34 853.42 C 772.66 858.52 764.05 863.77 754.96 868.11 C 747.27 871.83 739.80 876.06 731.75 878.97 C 726.94 880.71 722.24 882.74 717.46 884.57 C 699.63 890.96 681.35 895.98 662.87 900.09 C 654.92 901.74 646.82 902.54 638.84 904.01 C 631.86 905.29 624.75 905.25 617.71 905.92 C 609.49 906.72 601.24 906.24 593.00 906.34 C 586.32 906.27 579.64 906.51 572.97 906.29 C 557.16 905.37 541.38 903.60 525.86 900.43 C 517.11 898.67 508.30 897.09 499.81 894.31 C 488.69 890.94 477.41 888.00 466.73 883.36 C 456.78 878.92 446.54 875.12 436.71 870.41 C 429.06 866.42 421.52 862.24 413.94 858.13 C 409.41 855.80 404.97 853.28 400.91 850.21 C 390.96 842.69 379.75 836.92 370.44 828.54 C 368.71 826.92 367.31 824.99 365.80 823.17 C 371.10 826.46 376.08 830.23 381.22 833.74 C 386.54 837.37 391.38 841.64 396.82 845.09 C 403.40 849.60 410.35 853.55 417.05 857.89 C 421.26 860.55 426.00 862.19 430.34 864.62 C 441.00 870.82 452.41 875.63 463.97 879.89 C 478.04 885.48 492.36 890.66 507.28 893.49 C 516.40 895.15 525.27 897.96 534.44 899.36 C 550.79 902.21 567.38 904.04 583.99 903.66 C 591.99 903.64 600.00 903.63 608.00 903.71 C 616.75 903.75 625.45 902.54 634.18 902.06 C 646.12 901.39 657.74 898.41 669.46 896.23 C 688.62 892.37 707.15 886.03 725.43 879.21 C 731.98 876.67 738.22 873.42 744.58 870.44 C 750.62 867.48 756.95 865.09 762.72 861.60 C 771.40 856.27 780.81 852.12 788.92 845.89 C 792.53 843.06 796.26 840.37 800.26 838.12 C 808.38 833.55 814.98 826.88 822.23 821.13 C 825.90 818.30 828.73 814.50 830.23 810.09 C 823.25 810.33 817.77 815.24 810.99 816.29 C 812.63 814.82 814.22 813.29 815.91 811.89 C 820.71 810.13 825.48 808.28 829.95 805.77 Z" />
</g>
<g id="#5e5b54ff">
<path fill="#5e5b54" opacity="1.00" d=" M 412.51 145.90 C 418.21 146.85 423.79 145.08 429.36 144.17 C 428.62 146.04 428.29 148.31 426.55 149.57 C 424.48 151.24 422.12 152.50 419.82 153.82 C 408.62 160.10 397.42 166.46 387.02 174.03 C 380.44 178.36 374.25 183.24 367.94 187.94 C 358.40 194.58 350.17 202.84 341.37 210.38 C 326.47 224.19 313.15 239.57 300.15 255.16 C 295.91 260.29 292.31 265.92 288.00 270.99 C 284.74 274.84 281.94 279.06 279.31 283.36 C 274.36 291.39 268.67 298.99 264.37 307.42 C 261.81 312.42 258.90 317.22 256.09 322.08 C 251.10 330.71 247.62 340.10 242.88 348.87 C 241.66 350.85 240.48 353.23 238.16 354.10 C 235.55 354.98 232.76 355.03 230.04 355.13 C 212.74 355.24 195.43 354.91 178.13 355.33 C 175.91 355.34 173.33 355.11 171.91 353.16 C 170.85 351.51 170.53 349.52 169.99 347.67 C 174.63 346.95 179.31 346.53 184.01 346.61 C 197.00 346.76 210.00 346.58 222.99 346.71 C 227.04 346.76 231.09 346.61 235.13 346.28 C 240.01 334.17 245.97 322.53 251.94 310.94 C 271.31 275.21 295.26 241.82 324.06 213.07 C 345.79 190.75 370.38 171.28 396.82 154.83 C 401.88 151.56 407.36 149.02 412.51 145.90 Z" />
<path fill="#5e5b54" opacity="1.00" d=" M 571.83 232.79 C 608.81 220.37 648.04 214.17 687.06 216.09 C 748.45 218.70 809.08 239.93 858.17 276.98 C 856.86 277.61 855.56 278.25 854.27 278.88 C 849.41 275.47 844.33 272.39 839.09 269.61 C 833.48 266.65 828.25 263.03 822.52 260.32 C 817.61 257.99 813.03 255.01 808.00 252.96 C 795.76 248.15 783.85 242.35 771.15 238.80 C 751.82 234.35 732.73 228.23 712.81 226.98 C 702.58 225.55 692.26 225.56 681.96 225.63 C 666.14 224.38 650.34 226.55 634.68 228.54 C 628.99 229.38 623.25 230.03 617.66 231.43 C 611.71 232.94 605.57 233.70 599.73 235.67 C 595.13 237.20 590.37 238.17 585.74 239.62 C 575.90 242.88 566.05 246.23 556.65 250.63 C 546.31 255.49 535.64 259.79 525.91 265.85 C 519.90 269.46 513.63 272.70 508.08 277.03 C 502.43 281.47 495.97 284.77 490.53 289.47 C 484.37 294.68 477.99 299.61 471.83 304.81 C 460.42 315.08 449.95 326.34 440.02 338.04 C 435.56 343.51 431.77 349.69 426.07 354.01 C 423.81 355.77 420.79 355.69 418.08 355.79 C 378.39 355.69 338.70 355.79 299.01 355.73 C 292.78 355.67 286.50 356.61 280.32 355.53 C 278.92 355.23 277.14 354.84 276.71 353.24 C 276.24 351.09 276.66 348.87 276.83 346.70 C 324.75 346.57 372.67 346.75 420.58 346.61 C 424.75 340.23 429.52 334.29 434.42 328.47 C 470.23 284.71 518.46 251.38 571.83 232.79 Z" />
<path fill="#5e5b54" opacity="1.00" d=" M 959.24 398.56 L 960.21 398.58 C 960.46 398.94 960.96 399.67 961.21 400.03 C 960.59 416.34 960.93 432.68 960.88 449.00 C 961.04 461.00 960.56 473.01 961.23 485.00 C 960.97 485.36 960.45 486.08 960.19 486.43 L 959.24 486.46 L 959.34 485.52 C 960.19 478.71 959.85 471.84 959.86 465.00 C 959.89 449.00 959.85 433.00 959.85 417.00 C 959.89 411.18 959.98 405.34 959.33 399.54 L 959.24 398.56 Z" />
<path fill="#5e5b54" opacity="1.00" d=" M 227.46 778.52 C 225.86 776.97 225.22 774.82 224.47 772.81 C 232.89 781.29 241.02 790.10 250.09 797.91 C 265.15 811.75 281.45 824.20 298.48 835.52 C 312.09 844.97 326.87 852.50 341.35 860.48 C 339.71 861.45 338.11 862.47 336.49 863.45 C 331.40 859.48 325.39 857.02 319.82 853.86 C 312.05 850.05 305.53 844.27 298.09 839.93 C 292.29 836.54 287.23 832.09 281.81 828.16 C 272.57 821.54 264.73 813.24 255.98 806.02 C 245.81 797.56 236.81 787.84 227.46 778.52 Z" />
<path fill="#5e5b54" opacity="1.00" d=" M 342.34 800.66 C 338.77 797.23 334.28 794.09 333.36 788.88 C 339.63 795.22 346.37 801.07 353.06 806.96 C 371.07 822.76 390.86 836.44 411.54 848.49 C 420.81 853.74 430.43 858.34 440.01 862.98 C 482.66 882.33 529.10 893.57 575.97 894.67 C 588.31 894.48 600.68 895.10 613.00 894.01 C 625.54 893.17 638.04 891.61 650.40 889.30 C 660.80 887.37 671.22 885.44 681.35 882.33 C 689.23 879.90 697.23 877.82 704.97 874.93 C 743.36 861.70 779.04 841.23 810.99 816.29 C 817.77 815.24 823.25 810.33 830.23 810.09 C 828.73 814.50 825.90 818.30 822.23 821.13 C 814.98 826.88 808.38 833.55 800.26 838.12 C 796.26 840.37 792.53 843.06 788.92 845.89 C 780.81 852.12 771.40 856.27 762.72 861.60 C 756.95 865.09 750.62 867.48 744.58 870.44 C 738.22 873.42 731.98 876.67 725.43 879.21 C 707.15 886.03 688.62 892.37 669.46 896.23 C 657.74 898.41 646.12 901.39 634.18 902.06 C 625.45 902.54 616.75 903.75 608.00 903.71 C 600.00 903.63 591.99 903.64 583.99 903.66 C 567.38 904.04 550.79 902.21 534.44 899.36 C 525.27 897.96 516.40 895.15 507.28 893.49 C 492.36 890.66 478.04 885.48 463.97 879.89 C 452.41 875.63 441.00 870.82 430.34 864.62 C 426.00 862.19 421.26 860.55 417.05 857.89 C 410.35 853.55 403.40 849.60 396.82 845.09 C 391.38 841.64 386.54 837.37 381.22 833.74 C 376.08 830.23 371.10 826.46 365.80 823.17 C 364.52 822.11 363.25 821.06 361.97 820.01 C 359.96 817.69 357.97 815.35 355.65 813.34 C 351.03 809.30 346.91 804.75 342.34 800.66 Z" />
</g>
<g id="#0080ffff">
<path fill="#0080ff" opacity="1.00" d=" M 170.65 399.57 C 174.87 397.90 179.57 398.80 184.00 398.64 C 212.68 398.67 241.37 398.73 270.06 398.59 C 271.91 398.65 273.81 398.69 275.61 399.25 C 277.58 400.92 278.26 403.60 279.32 405.88 C 287.47 426.54 296.63 446.78 304.67 467.48 C 308.30 476.71 312.68 485.62 316.21 494.89 C 320.59 506.10 325.67 517.03 329.83 528.34 C 330.95 531.36 332.44 534.23 334.05 537.02 C 336.90 542.03 338.90 547.46 341.13 552.76 C 342.87 557.07 344.91 561.29 345.95 565.84 C 347.18 573.38 350.88 580.09 353.88 587.01 C 359.47 600.99 365.41 614.82 371.17 628.73 C 373.50 633.98 375.75 639.30 377.21 644.88 C 369.15 645.43 361.07 645.02 353.00 645.09 C 336.00 645.15 318.99 644.99 301.99 645.20 C 298.11 645.16 294.04 645.20 290.47 643.46 C 286.15 641.39 282.97 637.60 280.41 633.66 C 276.48 627.36 273.29 620.36 272.99 612.84 C 280.62 616.28 286.88 621.99 294.27 625.86 C 297.73 627.67 301.58 629.65 305.60 628.97 C 306.81 628.32 307.83 627.16 307.98 625.76 C 308.40 622.72 307.93 619.66 307.52 616.65 C 306.38 609.90 305.58 602.89 302.14 596.83 C 298.77 590.36 295.53 583.76 291.18 577.87 C 286.21 570.92 280.13 564.85 273.59 559.38 C 273.49 548.11 271.96 536.92 270.04 525.84 C 268.12 517.31 265.37 508.98 262.12 500.87 C 261.02 497.73 259.91 494.59 258.33 491.66 C 250.22 476.65 238.14 463.59 223.10 455.36 C 216.28 459.18 209.74 463.64 204.33 469.33 C 198.99 475.07 193.69 480.98 189.96 487.94 C 179.49 505.24 174.44 525.30 172.63 545.29 C 172.28 549.14 172.49 553.04 171.90 556.88 C 171.64 558.92 169.89 560.24 168.54 561.62 C 163.30 566.33 157.94 571.08 154.13 577.08 C 151.14 581.82 148.23 586.64 145.82 591.72 C 140.62 603.30 138.20 616.17 139.40 628.85 C 142.82 628.75 146.36 628.36 149.23 626.32 C 157.35 621.47 165.05 615.95 173.32 611.35 C 175.19 615.77 173.07 620.26 171.54 624.42 C 170.25 627.60 169.05 630.96 166.67 633.53 C 163.42 636.63 160.39 640.02 156.71 642.65 C 153.03 645.24 148.33 645.24 144.01 645.27 C 128.01 645.06 112.00 645.22 96.00 645.16 C 86.98 645.08 77.96 645.48 68.95 645.01 C 71.86 637.25 75.70 629.80 77.67 621.72 C 78.59 617.12 80.97 613.03 82.68 608.72 C 87.10 597.89 91.29 586.96 96.20 576.34 C 100.13 568.88 102.89 560.90 106.12 553.14 C 114.41 534.25 121.89 515.02 129.95 496.03 C 134.59 485.85 138.45 475.34 142.95 465.10 C 145.83 457.31 149.50 449.82 151.94 441.87 C 152.51 440.21 153.23 438.61 154.01 437.05 C 157.97 429.40 160.88 421.28 164.35 413.41 C 166.44 408.80 167.60 403.67 170.65 399.57 Z" />
<path fill="#0080ff" opacity="1.00" d=" M 410.98 400.09 C 457.65 399.97 504.32 400.06 551.00 400.02 C 565.04 399.93 579.21 399.83 593.03 402.64 C 603.74 403.98 613.64 408.44 624.03 411.02 C 631.51 414.08 638.33 418.50 645.08 422.89 C 652.87 427.96 659.38 434.63 665.99 441.09 C 670.18 445.46 673.05 450.86 675.86 456.17 C 678.55 461.28 680.72 466.71 681.87 472.39 C 682.50 478.60 683.72 484.78 683.42 491.04 C 682.94 502.57 679.89 514.03 674.22 524.10 C 669.10 533.85 661.70 542.26 653.40 549.42 C 637.84 562.13 619.15 570.59 599.83 575.78 L 599.00 575.89 C 589.61 576.25 580.46 578.75 571.06 579.10 C 564.04 579.36 557.02 579.27 550.00 579.33 C 531.72 579.19 513.44 579.48 495.16 579.22 C 494.74 598.45 495.14 617.68 494.99 636.92 C 479.67 637.47 464.33 637.12 449.00 637.22 C 436.28 637.11 423.55 637.49 410.84 636.96 C 410.51 627.64 410.71 618.32 410.67 609.00 C 410.69 561.67 410.63 514.34 410.69 467.01 C 410.96 444.70 410.43 422.39 410.98 400.09 M 495.17 465.17 C 495.13 481.45 495.12 497.74 495.19 514.03 C 507.11 514.68 519.05 514.19 530.99 514.33 C 540.23 514.15 549.53 514.88 558.73 513.63 C 562.23 513.16 565.91 512.92 569.00 511.03 C 576.31 508.78 584.00 506.11 589.26 500.26 C 592.46 497.08 594.79 492.66 594.18 488.03 C 593.36 481.43 588.00 476.30 582.04 473.95 C 577.73 469.76 571.56 468.56 565.95 467.09 C 562.47 464.60 558.02 465.33 554.01 465.13 C 534.40 465.13 514.79 465.13 495.17 465.17 Z" />
<path fill="#0080ff" opacity="1.00" d=" M 704.23 400.15 C 781.15 399.96 858.08 400.12 935.00 400.06 C 943.11 399.99 951.25 400.43 959.33 399.54 C 959.98 405.34 959.89 411.18 959.85 417.00 C 959.85 433.00 959.89 449.00 959.86 465.00 C 959.85 471.84 960.19 478.71 959.34 485.52 C 951.57 485.05 943.78 485.26 936.00 485.24 C 917.33 485.22 898.67 485.24 880.00 485.23 C 875.82 485.28 871.60 484.78 867.45 485.40 C 866.12 486.03 866.44 487.83 866.22 489.04 C 866.08 516.36 866.19 543.68 866.25 571.00 C 866.17 592.96 866.59 614.93 865.98 636.89 C 851.65 637.06 837.32 637.30 823.00 637.20 C 811.40 637.10 799.80 637.47 788.22 636.88 C 788.53 590.25 788.19 543.62 788.39 496.99 C 788.40 493.09 788.18 489.20 787.88 485.32 C 759.99 484.87 732.10 485.54 704.22 484.95 C 704.42 456.68 704.41 428.41 704.23 400.15 Z" />
<path fill="#0080ff" opacity="1.00" d=" M 218.35 504.42 C 225.87 502.67 234.06 505.15 239.80 510.20 C 245.83 516.14 248.79 525.35 246.59 533.63 C 245.23 539.35 241.44 544.32 236.61 547.60 C 227.31 553.86 213.50 552.51 205.99 544.04 C 198.58 536.30 197.45 523.40 203.53 514.56 C 206.87 509.37 212.40 505.85 218.35 504.42 Z" />
</g>
<g id="#3a90c0ff">
<path fill="#3a90c0" opacity="1.00" d=" M 409.66 398.56 L 410.73 398.57 C 458.82 398.79 506.91 398.61 555.00 398.67 C 578.45 398.17 602.65 400.77 624.03 411.02 C 613.64 408.44 603.74 403.98 593.03 402.64 C 579.21 399.83 565.04 399.93 551.00 400.02 C 504.32 400.06 457.65 399.97 410.98 400.09 C 410.43 422.39 410.96 444.70 410.69 467.01 C 410.63 514.34 410.69 561.67 410.67 609.00 C 410.71 618.32 410.51 627.64 410.84 636.96 C 423.55 637.49 436.28 637.11 449.00 637.22 C 464.33 637.12 479.67 637.47 494.99 636.92 C 495.14 617.68 494.74 598.45 495.16 579.22 C 513.44 579.48 531.72 579.19 550.00 579.33 C 557.02 579.27 564.04 579.36 571.06 579.10 C 580.46 578.75 589.61 576.25 599.00 575.89 C 594.74 578.25 589.76 578.17 585.08 579.00 C 578.11 580.12 571.05 580.42 564.00 580.36 C 541.42 580.27 518.84 580.57 496.26 580.28 C 496.00 593.52 496.15 606.76 496.11 620.00 C 496.07 626.15 496.58 632.35 495.50 638.46 C 466.92 638.12 438.34 638.62 409.76 638.20 C 409.59 634.14 409.54 630.07 409.58 626.00 C 409.65 550.19 409.52 474.37 409.66 398.56 Z" />
<path fill="#3a90c0" opacity="1.00" d=" M 703.45 400.23 C 703.46 399.77 703.49 398.84 703.51 398.37 C 709.33 398.76 715.17 398.72 721.00 398.67 C 790.67 398.66 860.33 398.68 930.00 398.67 C 939.74 398.66 949.49 398.74 959.24 398.56 L 959.33 399.54 C 951.25 400.43 943.11 399.99 935.00 400.06 C 858.08 400.12 781.15 399.96 704.23 400.15 C 704.41 428.41 704.42 456.68 704.22 484.95 C 732.10 485.54 759.99 484.87 787.88 485.32 C 788.18 489.20 788.40 493.09 788.39 496.99 C 788.19 543.62 788.53 590.25 788.22 636.88 C 799.80 637.47 811.40 637.10 823.00 637.20 C 837.32 637.30 851.65 637.06 865.98 636.89 C 866.59 614.93 866.17 592.96 866.25 571.00 C 866.19 543.68 866.08 516.36 866.22 489.04 C 866.44 487.83 866.12 486.03 867.45 485.40 C 871.60 484.78 875.82 485.28 880.00 485.23 C 898.67 485.24 917.33 485.22 936.00 485.24 C 943.78 485.26 951.57 485.05 959.34 485.52 L 959.24 486.46 C 928.80 486.09 898.36 486.53 867.92 486.22 C 867.78 489.48 867.66 492.74 867.65 496.00 C 867.68 535.00 867.64 574.00 867.66 613.00 C 867.68 621.29 867.56 629.58 867.80 637.87 C 840.84 638.31 813.87 637.77 786.91 638.20 C 787.52 631.82 787.36 625.40 787.34 619.00 C 787.34 581.33 787.34 543.67 787.34 506.00 C 787.42 499.44 787.47 492.86 786.87 486.32 C 765.24 486.33 743.62 486.31 722.00 486.33 C 715.73 486.39 709.46 486.35 703.20 486.02 C 703.60 457.43 703.10 428.83 703.45 400.23 Z" />
<path fill="#3a90c0" opacity="1.00" d=" M 495.17 465.17 C 514.79 465.13 534.40 465.13 554.01 465.13 C 558.02 465.33 562.47 464.60 565.95 467.09 C 559.67 466.23 553.32 466.18 547.00 466.16 C 530.02 466.11 513.05 466.17 496.07 466.12 C 495.86 481.77 495.87 497.43 496.08 513.08 C 512.05 513.67 528.03 513.08 544.00 513.11 C 552.37 513.12 560.76 512.55 569.00 511.03 C 565.91 512.92 562.23 513.16 558.73 513.63 C 549.53 514.88 540.23 514.15 530.99 514.33 C 519.05 514.19 507.11 514.68 495.19 514.03 C 495.12 497.74 495.13 481.45 495.17 465.17 Z" />
<path fill="#3a90c0" opacity="1.00" d=" M 345.95 565.84 C 351.56 575.85 355.07 586.87 359.57 597.40 C 363.91 607.71 368.48 617.93 372.56 628.35 C 374.82 634.11 377.80 639.63 379.11 645.73 C 372.11 646.66 365.04 646.31 358.00 646.35 C 337.65 646.36 317.30 646.34 296.95 646.37 C 291.88 646.47 287.10 643.94 283.72 640.28 C 278.37 634.45 274.51 627.27 272.47 619.64 C 271.63 616.77 271.84 613.76 272.09 610.83 C 281.82 614.97 289.62 622.54 299.32 626.75 C 301.30 627.54 303.45 627.61 305.54 627.85 C 307.15 620.27 305.85 612.46 303.86 605.09 C 303.10 602.38 302.52 599.62 302.14 596.83 C 305.58 602.89 306.38 609.90 307.52 616.65 C 307.93 619.66 308.40 622.72 307.98 625.76 C 307.83 627.16 306.81 628.32 305.60 628.97 C 301.58 629.65 297.73 627.67 294.27 625.86 C 286.88 621.99 280.62 616.28 272.99 612.84 C 273.29 620.36 276.48 627.36 280.41 633.66 C 282.97 637.60 286.15 641.39 290.47 643.46 C 294.04 645.20 298.11 645.16 301.99 645.20 C 318.99 644.99 336.00 645.15 353.00 645.09 C 361.07 645.02 369.15 645.43 377.21 644.88 C 375.75 639.30 373.50 633.98 371.17 628.73 C 365.41 614.82 359.47 600.99 353.88 587.01 C 350.88 580.09 347.18 573.38 345.95 565.84 Z" />
<path fill="#3a90c0" opacity="1.00" d=" M 77.67 621.72 C 75.70 629.80 71.86 637.25 68.95 645.01 C 77.96 645.48 86.98 645.08 96.00 645.16 C 112.00 645.22 128.01 645.06 144.01 645.27 C 148.33 645.24 153.03 645.24 156.71 642.65 C 160.39 640.02 163.42 636.63 166.67 633.53 C 164.85 638.30 161.12 642.15 156.75 644.68 C 153.79 646.34 150.30 646.38 147.01 646.41 C 120.43 646.24 93.86 646.50 67.28 646.27 C 68.38 640.89 71.17 636.11 73.01 630.98 C 74.18 627.72 75.71 624.59 77.67 621.72 Z" />
</g>
<g id="#fe0201ff">
<path fill="#fe0201" opacity="1.00" d=" M 215.38 618.35 C 219.78 617.17 224.44 617.23 228.95 617.74 C 237.39 619.11 244.53 625.01 248.54 632.43 C 253.30 639.49 253.04 648.91 249.43 656.40 C 243.68 668.15 236.92 679.36 230.94 690.98 C 229.67 693.29 228.52 695.76 226.62 697.63 C 224.96 699.24 222.04 699.28 220.38 697.65 C 219.02 696.23 218.14 694.43 217.20 692.73 C 210.98 681.01 204.31 669.53 198.23 657.74 C 194.23 650.04 193.53 639.98 198.50 632.54 C 202.14 625.96 208.11 620.56 215.38 618.35 Z" />
</g>
</svg>
