<svg xmlns="http://www.w3.org/2000/svg" xmlns:xlink="http://www.w3.org/1999/xlink" version="1.1" width="256" height="256" viewBox="0 0 256 256" xml:space="preserve">
<g style="stroke: none; stroke-width: 0; stroke-dasharray: none; stroke-linecap: butt; stroke-linejoin: miter; stroke-miterlimit: 10; fill: none; fill-rule: nonzero; opacity: 1;" transform="translate(1.4065934065934016 1.4065934065934016) scale(2.81 2.81)">
	<path d="M 45 0 C 25.463 0 9.625 15.838 9.625 35.375 c 0 8.722 3.171 16.693 8.404 22.861 L 45 90 l 26.97 -31.765 c 5.233 -6.167 8.404 -14.139 8.404 -22.861 C 80.375 15.838 64.537 0 45 0 z" style="stroke: none; stroke-width: 1; stroke-dasharray: none; stroke-linecap: butt; stroke-linejoin: miter; stroke-miterlimit: 10; fill: rgb(40,57,145); fill-rule: nonzero; opacity: 1;" transform=" matrix(1 0 0 1 0 0) " stroke-linecap="round"/>
	<circle cx="45" cy="34.16" r="28" style="stroke: none; stroke-width: 1; stroke-dasharray: none; stroke-linecap: butt; stroke-linejoin: miter; stroke-miterlimit: 10; fill: rgb(243,244,245); fill-rule: nonzero; opacity: 1;" transform="  matrix(1 0 0 1 0 0) "/>
	<path d="M 20.284 37.931 c 0.513 3.388 1.709 6.552 3.439 9.35 h 42.555 c 1.73 -2.798 2.926 -5.962 3.439 -9.35 H 20.284 z" style="stroke: none; stroke-width: 1; stroke-dasharray: none; stroke-linecap: butt; stroke-linejoin: miter; stroke-miterlimit: 10; fill: rgb(255,255,255); fill-rule: nonzero; opacity: 1;" transform=" matrix(1 0 0 1 0 0) " stroke-linecap="round"/>
	<path d="M 58.688 55.073 H 31.312 c 3.933 2.579 8.633 4.084 13.688 4.084 S 54.755 57.652 58.688 55.073 z" style="stroke: none; stroke-width: 1; stroke-dasharray: none; stroke-linecap: butt; stroke-linejoin: miter; stroke-miterlimit: 10; fill: rgb(255,255,255); fill-rule: nonzero; opacity: 1;" transform=" matrix(1 0 0 1 0 0) " stroke-linecap="round"/>
	<path d="M 23.723 47.281 c 1.929 3.121 4.525 5.782 7.59 7.792 h 27.376 c 3.064 -2.009 5.661 -4.671 7.59 -7.792 H 23.723 z" style="stroke: none; stroke-width: 1; stroke-dasharray: none; stroke-linecap: butt; stroke-linejoin: miter; stroke-miterlimit: 10; fill: rgb(220,48,39); fill-rule: nonzero; opacity: 1;" transform=" matrix(1 0 0 1 0 0) " stroke-linecap="round"/>
	<path d="M 47.572 9.288 C 46.726 9.202 45.868 9.157 45 9.157 c -13.807 0 -25 11.193 -25 25 c 0 1.283 0.097 2.543 0.284 3.774 h 27.288 V 9.288 z" style="stroke: none; stroke-width: 1; stroke-dasharray: none; stroke-linecap: butt; stroke-linejoin: miter; stroke-miterlimit: 10; fill: rgb(40,57,145); fill-rule: nonzero; opacity: 1;" transform=" matrix(1 0 0 1 0 0) " stroke-linecap="round"/>
	<path d="M 27.605 21.987 l -0.773 -2.374 l 2.014 -1.464 h -2.491 l -0.151 -0.465 c -0.79 0.9 -1.515 1.858 -2.171 2.865 l -0.468 1.438 l 2.02 -1.468 L 27.605 21.987 z" style="stroke: none; stroke-width: 1; stroke-dasharray: none; stroke-linecap: butt; stroke-linejoin: miter; stroke-miterlimit: 10; fill: rgb(255,255,255); fill-rule: nonzero; opacity: 1;" transform=" matrix(1 0 0 1 0 0) " stroke-linecap="round"/>
	<path d="M 32.635 14.523 l 2.011 1.462 l -0.771 -2.368 l 2.012 -1.47 h -2.491 l -0.037 -0.113 c -0.786 0.414 -1.548 0.865 -2.282 1.358 l 0.316 0.229 l -0.759 2.364 L 32.635 14.523 z" style="stroke: none; stroke-width: 1; stroke-dasharray: none; stroke-linecap: butt; stroke-linejoin: miter; stroke-miterlimit: 10; fill: rgb(255,255,255); fill-rule: nonzero; opacity: 1;" transform=" matrix(1 0 0 1 0 0) " stroke-linecap="round"/>
	<polygon points="24.34,31.62 23.57,33.99 25.59,32.52 27.61,33.99 26.83,31.62 28.85,30.15 26.36,30.15 25.59,27.79 24.81,30.15 22.32,30.15 " style="stroke: none; stroke-width: 1; stroke-dasharray: none; stroke-linecap: butt; stroke-linejoin: miter; stroke-miterlimit: 10; fill: rgb(255,255,255); fill-rule: nonzero; opacity: 1;" transform="  matrix(1 0 0 1 0 0) "/>
	<polygon points="38.45,31.62 37.68,33.99 39.7,32.52 41.72,33.99 40.94,31.62 42.96,30.15 40.47,30.15 39.7,27.79 38.93,30.15 36.44,30.15 " style="stroke: none; stroke-width: 1; stroke-dasharray: none; stroke-linecap: butt; stroke-linejoin: miter; stroke-miterlimit: 10; fill: rgb(255,255,255); fill-rule: nonzero; opacity: 1;" transform="  matrix(1 0 0 1 0 0) "/>
	<polygon points="38.45,19.61 37.68,21.99 39.7,20.52 41.72,21.99 40.94,19.61 42.96,18.15 40.47,18.15 39.7,15.78 38.93,18.15 36.44,18.15 " style="stroke: none; stroke-width: 1; stroke-dasharray: none; stroke-linecap: butt; stroke-linejoin: miter; stroke-miterlimit: 10; fill: rgb(255,255,255); fill-rule: nonzero; opacity: 1;" transform="  matrix(1 0 0 1 0 0) "/>
	<polygon points="31.38,25.61 30.61,27.99 32.63,26.52 34.65,27.99 33.87,25.61 35.89,24.15 33.4,24.15 32.63,21.79 31.86,24.15 29.36,24.15 " style="stroke: none; stroke-width: 1; stroke-dasharray: none; stroke-linecap: butt; stroke-linejoin: miter; stroke-miterlimit: 10; fill: rgb(255,255,255); fill-rule: nonzero; opacity: 1;" transform="  matrix(1 0 0 1 0 0) "/>
	<path d="M 69.674 30.139 H 47.572 v 7.792 h 22.144 C 69.903 36.7 70 35.44 70 34.157 C 70 32.789 69.886 31.448 69.674 30.139 z" style="stroke: none; stroke-width: 1; stroke-dasharray: none; stroke-linecap: butt; stroke-linejoin: miter; stroke-miterlimit: 10; fill: rgb(220,48,39); fill-rule: nonzero; opacity: 1;" transform=" matrix(1 0 0 1 0 0) " stroke-linecap="round"/>
	<path d="M 47.572 30.139 h 22.103 c -0.549 -3.395 -1.783 -6.559 -3.553 -9.35 h -18.55 V 30.139 z" style="stroke: none; stroke-width: 1; stroke-dasharray: none; stroke-linecap: butt; stroke-linejoin: miter; stroke-miterlimit: 10; fill: rgb(255,255,255); fill-rule: nonzero; opacity: 1;" transform=" matrix(1 0 0 1 0 0) " stroke-linecap="round"/>
	<path d="M 47.572 20.789 h 18.55 c -1.993 -3.142 -4.665 -5.808 -7.813 -7.792 H 47.572 V 20.789 z" style="stroke: none; stroke-width: 1; stroke-dasharray: none; stroke-linecap: butt; stroke-linejoin: miter; stroke-miterlimit: 10; fill: rgb(220,48,39); fill-rule: nonzero; opacity: 1;" transform=" matrix(1 0 0 1 0 0) " stroke-linecap="round"/>
	<path d="M 47.572 9.29 v 3.707 h 10.736 C 55.138 10.999 51.489 9.692 47.572 9.29 z" style="stroke: none; stroke-width: 1; stroke-dasharray: none; stroke-linecap: butt; stroke-linejoin: miter; stroke-miterlimit: 10; fill: rgb(255,255,255); fill-rule: nonzero; opacity: 1;" transform=" matrix(1 0 0 1 0 0) " stroke-linecap="round"/>
</g>
</svg>