<svg xmlns="http://www.w3.org/2000/svg" xmlns:xlink="http://www.w3.org/1999/xlink" version="1.1" width="256" height="256" viewBox="0 0 256 256" xml:space="preserve">
<g style="stroke: none; stroke-width: 0; stroke-dasharray: none; stroke-linecap: butt; stroke-linejoin: miter; stroke-miterlimit: 10; fill: none; fill-rule: nonzero; opacity: 1;" transform="translate(1.4065934065934016 1.4065934065934016) scale(2.81 2.81)">
	<path d="M 45 0 C 28.967 0 14.902 8.392 6.932 21.015 c 2.729 1.97 6.069 3.145 9.693 3.145 h 32.399 c 17.08 0 32.123 8.704 40.948 21.915 C 89.981 45.716 90 45.36 90 45 C 90 20.147 69.853 0 45 0 z" style="stroke: none; stroke-width: 1; stroke-dasharray: none; stroke-linecap: butt; stroke-linejoin: miter; stroke-miterlimit: 10; fill: rgb(45,193,0); fill-rule: nonzero; opacity: 1;" transform=" matrix(1 0 0 1 0 0) " stroke-linecap="round"/>
	<path d="M 90 45 c 0 -1.207 -0.062 -2.399 -0.155 -3.583 C 81.002 27.735 66.02 20.885 49.024 20.885 H 16.625 c -3.159 0 -6.101 -0.494 -8.614 -1.504 C 3.387 26.046 0.51 34.014 0.063 42.629 c 9.023 11.127 22.794 18.247 38.236 18.247 h 0.744 c 9.038 0 13.101 3.942 13.329 12.925 c 0.004 -0.143 0.022 -0.282 0.022 -0.426 c 0 8.417 -3.516 15.355 -11.172 16.456 C 42.469 89.934 43.726 90 45 90 C 69.853 90 90 69.853 90 45 z" style="stroke: none; stroke-width: 1; stroke-dasharray: none; stroke-linecap: butt; stroke-linejoin: miter; stroke-miterlimit: 10; fill: rgb(42,180,0); fill-rule: nonzero; opacity: 1;" transform=" matrix(1 0 0 1 0 0) " stroke-linecap="round"/>
	<path d="M 41.27 89.834 c 7.988 -1.072 14.169 -7.802 14.378 -16.034 c -0.228 -8.983 -7.566 -16.2 -16.604 -16.2 h -0.744 c -15.296 0 -28.947 -6.992 -37.973 -17.938 C 0.119 41.414 0 43.193 0 45 C 0 68.595 18.164 87.936 41.27 89.834 z" style="stroke: none; stroke-width: 1; stroke-dasharray: none; stroke-linecap: butt; stroke-linejoin: miter; stroke-miterlimit: 10; fill: rgb(39,169,0); fill-rule: nonzero; opacity: 1;" transform=" matrix(1 0 0 1 0 0) " stroke-linecap="round"/>
	<path d="M 72.887 46.808 c -1.471 -3.332 -4.248 -5.971 -7.47 -7.605 c -5.688 -2.886 -12.765 -2.864 -18.434 0.068 c -3.943 2.025 -7.232 5.651 -8.169 10.062 c -0.771 3.246 -0.077 6.741 1.643 9.575 c 2.565 4.251 7.195 6.964 12.013 7.836 c 3.489 0.709 7.096 0.293 10.484 -0.693 c 2.028 0.793 3.847 2.069 5.817 3.012 c -0.504 -1.704 -1.046 -3.395 -1.627 -5.074 c 2.204 -1.575 4.214 -3.53 5.422 -5.99 C 74.364 54.573 74.472 50.331 72.887 46.808 L 72.887 46.808 z M 53.09 48.081 c -0.499 1.575 -2.796 2.05 -3.9 0.847 c -1.221 -1.107 -0.746 -3.428 0.853 -3.921 C 51.824 44.259 53.87 46.305 53.09 48.081 L 53.09 48.081 z M 64.678 48.3 c -0.608 1.418 -2.732 1.745 -3.779 0.648 c -0.508 -0.457 -0.632 -1.15 -0.835 -1.763 c 0.272 -1.104 1.008 -2.254 2.262 -2.303 C 64.062 44.643 65.584 46.749 64.678 48.3 z" style="stroke: none; stroke-width: 1; stroke-dasharray: none; stroke-linecap: butt; stroke-linejoin: miter; stroke-miterlimit: 10; fill: rgb(255,255,255); fill-rule: nonzero; opacity: 1;" transform=" matrix(1 0 0 1 0 0) " stroke-linecap="round"/>
	<path d="M 36.473 48.777 c 1.012 -4.767 4.535 -9.142 9.411 -11.647 c 3.653 -1.889 7.823 -2.693 11.922 -2.422 c -1.344 -4.6 -4.73 -8.461 -8.898 -10.767 c -6.027 -3.394 -13.539 -3.906 -20.025 -1.563 c -4.26 1.535 -8.12 4.386 -10.503 8.271 c -2.16 3.502 -2.971 7.87 -1.927 11.877 c 1.045 4.448 4.127 8.175 7.882 10.666 c -0.706 2.053 -1.403 4.106 -2.059 6.174 c 2.374 -1.233 4.719 -2.518 7.084 -3.773 c 2.434 0.779 4.975 1.189 7.528 1.239 C 36.023 54.193 35.853 51.39 36.473 48.777 z M 43.398 29.807 c 1.896 -0.746 4.14 0.854 3.992 2.898 c 0.018 2.324 -3.077 3.773 -4.818 2.195 C 40.766 33.608 41.278 30.46 43.398 29.807 z M 32.752 33.29 c -0.419 2.019 -3.126 2.993 -4.707 1.64 c -1.831 -1.292 -1.319 -4.501 0.835 -5.145 C 30.988 28.972 33.387 31.114 32.752 33.29 z" style="stroke: none; stroke-width: 1; stroke-dasharray: none; stroke-linecap: butt; stroke-linejoin: miter; stroke-miterlimit: 10; fill: rgb(255,255,255); fill-rule: nonzero; opacity: 1;" transform=" matrix(1 0 0 1 0 0) " stroke-linecap="round"/>
</g>
</svg>